<svg id="Layer_1" data-name="Layer 1" xmlns="http://www.w3.org/2000/svg" xmlns:xlink="http://www.w3.org/1999/xlink" viewBox="0 0 450 450">
  <defs>
    <clipPath id="clip-path">
      <circle cx="225" cy="225" r="225" style="fill: none"/>
    </clipPath>
    <linearGradient id="linear-gradient" x1="44.98" y1="404.08" x2="45.98" y2="404.08" gradientTransform="matrix(-111, 120.75, 114.43, 105.19, -41069.68, -47664.27)" gradientUnits="userSpaceOnUse">
      <stop offset="0" stop-color="#4b537d"/>
      <stop offset="1" stop-color="#4b537d" stop-opacity="0"/>
    </linearGradient>
    <linearGradient id="linear-gradient-2" x1="44.73" y1="404.23" x2="45.73" y2="404.23" gradientTransform="matrix(0, 163.71, 166.46, 0, -67205.54, -7066.76)" gradientUnits="userSpaceOnUse">
      <stop offset="0" stop-color="#5a69a9"/>
      <stop offset="1" stop-color="#5a69a9" stop-opacity="0"/>
    </linearGradient>
    <linearGradient id="linear-gradient-3" x1="44.93" y1="403.95" x2="45.93" y2="403.95" gradientTransform="matrix(-87.75, 122.25, 101.6, 72.92, -36920.86, -34653.38)" gradientUnits="userSpaceOnUse">
      <stop offset="0.03" stop-color="#6a74ab"/>
      <stop offset="1" stop-color="#6a74ab" stop-opacity="0"/>
    </linearGradient>
    <linearGradient id="linear-gradient-4" x1="44.71" y1="404.2" x2="45.71" y2="404.2" gradientTransform="matrix(0, 157.14, 149.44, 0, -60038.35, -7025.14)" gradientUnits="userSpaceOnUse">
      <stop offset="0.23" stop-color="#101010"/>
      <stop offset="1" stop-color="#5a69a9"/>
    </linearGradient>
    <linearGradient id="linear-gradient-5" x1="44.69" y1="404.18" x2="45.69" y2="404.18" gradientTransform="matrix(0, 145.13, 142.38, 0, -57169.03, -6461.17)" gradientUnits="userSpaceOnUse">
      <stop offset="0" stop-color="#313131" stop-opacity="0"/>
      <stop offset="0.97" stop-color="#5a69a9"/>
    </linearGradient>
    <linearGradient id="linear-gradient-6" x1="44.64" y1="404.2" x2="45.64" y2="404.2" gradientTransform="matrix(0, 126.61, 152.13, 0, -61416.42, -5613.31)" gradientUnits="userSpaceOnUse">
      <stop offset="0.35" stop-color="#4b537d" stop-opacity="0"/>
      <stop offset="0.75" stop-color="#4b537d"/>
    </linearGradient>
    <linearGradient id="linear-gradient-7" x1="44.58" y1="404.35" x2="45.58" y2="404.35" gradientTransform="matrix(75, 126, 79.62, -47.4, -35245.73, 13839.79)" gradientUnits="userSpaceOnUse">
      <stop offset="0" stop-color="#6a74ab"/>
      <stop offset="1" stop-color="#6a74ab" stop-opacity="0"/>
    </linearGradient>
    <linearGradient id="linear-gradient-8" x1="44.13" y1="404.31" x2="45.13" y2="404.31" gradientTransform="matrix(38.25, 60, 39.68, -25.3, -17437.55, 7909.93)" xlink:href="#linear-gradient"/>
    <linearGradient id="linear-gradient-9" x1="44.68" y1="404.05" x2="45.68" y2="404.05" gradientTransform="matrix(0, 140.26, 99.23, 0, -39788.74, -5957.27)" gradientUnits="userSpaceOnUse">
      <stop offset="0" stop-color="#7c88cc"/>
      <stop offset="0.85" stop-color="#7c88cc" stop-opacity="0"/>
    </linearGradient>
    <linearGradient id="linear-gradient-10" x1="44.69" y1="404" x2="45.69" y2="404" gradientTransform="matrix(0, 144.48, 90.34, 0, -36177, -6455.32)" gradientUnits="userSpaceOnUse">
      <stop offset="0" stop-opacity="0"/>
      <stop offset="0.55" stop-color="#4b537d"/>
    </linearGradient>
    <linearGradient id="linear-gradient-11" x1="44.32" y1="404.58" x2="45.32" y2="404.58" gradientTransform="matrix(74.25, 54.75, 71.47, -96.93, -31886.52, 37084.49)" xlink:href="#linear-gradient"/>
    <linearGradient id="linear-gradient-12" x1="44.45" y1="404.52" x2="45.45" y2="404.52" gradientTransform="matrix(98.25, 48, 128.12, -262.24, -56163.44, 104103.18)" gradientUnits="userSpaceOnUse">
      <stop offset="0" stop-color="#4b537d" stop-opacity="0"/>
      <stop offset="0.72" stop-color="#4b537d"/>
    </linearGradient>
    <linearGradient id="linear-gradient-13" x1="44.61" y1="404.18" x2="45.61" y2="404.18" gradientTransform="matrix(0, 116.56, 139.63, 0, -56366.57, -5182.27)" gradientUnits="userSpaceOnUse">
      <stop offset="0.39" stop-color="#a0a8da" stop-opacity="0"/>
      <stop offset="0.81" stop-color="#a0a8da"/>
    </linearGradient>
    <linearGradient id="linear-gradient-14" x1="45.58" y1="404.39" x2="46.58" y2="404.39" gradientTransform="matrix(-93.75, -41.25, -78, 177.26, 35933.62, -69631.93)" xlink:href="#linear-gradient-2"/>
    <linearGradient id="linear-gradient-15" x1="45.32" y1="404.34" x2="46.32" y2="404.34" gradientTransform="matrix(-103.5, 24, 64.54, 278.34, -21279.28, -113362.24)" gradientUnits="userSpaceOnUse">
      <stop offset="0" stop-color="#9ea5d3"/>
      <stop offset="1" stop-color="#9ea5d3" stop-opacity="0"/>
    </linearGradient>
    <linearGradient id="linear-gradient-16" x1="44.49" y1="404.13" x2="45.49" y2="404.13" gradientTransform="matrix(0, 87.99, 121.04, 0, -48525.7, -3828.7)" gradientUnits="userSpaceOnUse">
      <stop offset="0.19" stop-color="#a0a8da" stop-opacity="0"/>
      <stop offset="1" stop-color="#a0a8da"/>
    </linearGradient>
    <linearGradient id="linear-gradient-17" x1="44.65" y1="403.87" x2="45.65" y2="403.87" gradientTransform="matrix(0, 129.87, 71.26, 0, -28487.88, -5798.18)" gradientUnits="userSpaceOnUse">
      <stop offset="0.13" stop-color="#a0a8da" stop-opacity="0"/>
      <stop offset="0.96" stop-color="#a0a8da"/>
    </linearGradient>
    <linearGradient id="linear-gradient-18" x1="44.54" y1="404.55" x2="45.54" y2="404.55" gradientTransform="matrix(97.5, 0, 0, -874.44, -4017.74, 353968.68)" gradientUnits="userSpaceOnUse">
      <stop offset="0" stop-color="#7c88cc"/>
      <stop offset="1" stop-color="#7c88cc" stop-opacity="0"/>
    </linearGradient>
    <linearGradient id="linear-gradient-19" x1="44.57" y1="404.56" x2="45.57" y2="404.56" gradientTransform="matrix(105, 0, 0, -728, -4344, 294753.62)" xlink:href="#linear-gradient"/>
    <linearGradient id="linear-gradient-20" x1="44.62" y1="404.08" x2="45.62" y2="404.08" gradientTransform="matrix(0, 117.86, 107.32, 0, -43265.66, -5256.95)" gradientUnits="userSpaceOnUse">
      <stop offset="0.48" stop-color="#5a69a9" stop-opacity="0"/>
      <stop offset="0.82" stop-color="#5a69a9"/>
    </linearGradient>
    <linearGradient id="linear-gradient-21" x1="44.33" y1="404.65" x2="45.33" y2="404.65" gradientTransform="matrix(79.5, 46.5, 73.13, -125.02, -32776.37, 48816.48)" xlink:href="#linear-gradient-18"/>
    <linearGradient id="linear-gradient-22" x1="44.26" y1="404.54" x2="45.26" y2="404.54" gradientTransform="matrix(48.75, 69.75, 76.83, -53.7, -32893.93, 18948.05)" gradientUnits="userSpaceOnUse">
      <stop offset="0" stop-color="#7c88cc"/>
      <stop offset="0.86" stop-color="#7c88cc" stop-opacity="0"/>
    </linearGradient>
    <linearGradient id="linear-gradient-23" x1="44.64" y1="403.81" x2="45.64" y2="403.81" gradientTransform="matrix(0, 126.66, 64.94, 0, -26078.18, -5653.18)" gradientUnits="userSpaceOnUse">
      <stop offset="0.12" stop-color="#7c88cc" stop-opacity="0"/>
      <stop offset="1" stop-color="#7c88cc"/>
    </linearGradient>
    <linearGradient id="linear-gradient-24" x1="44.62" y1="404.03" x2="45.62" y2="404.03" gradientTransform="matrix(0, 119.16, 96.34, 0, -38572.96, -5315.39)" gradientUnits="userSpaceOnUse">
      <stop offset="0" stop-opacity="0"/>
      <stop offset="0.86" stop-color="#a0a8da"/>
    </linearGradient>
    <linearGradient id="linear-gradient-25" x1="44.88" y1="403.62" x2="45.88" y2="403.62" gradientTransform="matrix(-59.25, 88.5, 61.33, 41.06, -21923.35, -20214.14)" xlink:href="#linear-gradient-2"/>
    <linearGradient id="linear-gradient-26" x1="45.2" y1="404.06" x2="46.2" y2="404.06" gradientTransform="matrix(-76.5, 42.75, 69.89, 125.07, -24676.58, -52175.5)" xlink:href="#linear-gradient-7"/>
    <linearGradient id="linear-gradient-27" x1="45.47" y1="404.4" x2="46.47" y2="404.4" gradientTransform="matrix(-87, 6.75, 35.53, 457.99, -10315.8, -185279.95)" xlink:href="#linear-gradient-7"/>
    <linearGradient id="linear-gradient-28" x1="45.41" y1="404.43" x2="46.41" y2="404.43" gradientTransform="matrix(-105, 3.75, 24.41, 683.54, -4991.55, -276363.06)" xlink:href="#linear-gradient"/>
    <linearGradient id="linear-gradient-29" x1="44.13" y1="404.08" x2="45.13" y2="404.08" gradientTransform="matrix(0, 51.43, 106.71, 0, -42722.37, -2002.57)" xlink:href="#linear-gradient-2"/>
    <linearGradient id="linear-gradient-30" x1="45.56" y1="404.39" x2="46.56" y2="404.39" gradientTransform="matrix(-94.5, -59.25, -76.2, 121.54, 35260.28, -46289.56)" gradientUnits="userSpaceOnUse">
      <stop offset="0" stop-color="#a0a8da"/>
      <stop offset="1" stop-color="#a0a8da" stop-opacity="0"/>
    </linearGradient>
    <linearGradient id="linear-gradient-31" x1="44.55" y1="404.55" x2="45.55" y2="404.55" gradientTransform="matrix(102.75, 2.25, 21.13, -965.14, -12786.49, 390601.55)" xlink:href="#linear-gradient-7"/>
    <linearGradient id="linear-gradient-32" x1="44.68" y1="402.18" x2="45.68" y2="402.18" gradientTransform="matrix(-7.13, 134.84, 18.41, 0.97, -6878.97, -6078.94)" xlink:href="#linear-gradient"/>
    <linearGradient id="linear-gradient-33" x1="45.47" y1="404.45" x2="46.47" y2="404.45" gradientTransform="matrix(-97.5, -1.5, -13.12, 852.54, 9839.9, -344541.17)" xlink:href="#linear-gradient-2"/>
    <linearGradient id="linear-gradient-34" x1="44.52" y1="400.53" x2="45.52" y2="400.53" gradientTransform="matrix(0.64, 94.21, 11.36, -0.08, -4352.45, -3824.24)" xlink:href="#linear-gradient-7"/>
    <linearGradient id="linear-gradient-35" x1="44.57" y1="400.84" x2="45.57" y2="400.84" gradientTransform="matrix(0, 104.87, 12.28, 0, -4719.97, -4672.53)" gradientUnits="userSpaceOnUse">
      <stop offset="0" stop-color="#a0a8da" stop-opacity="0"/>
      <stop offset="1" stop-color="#a0a8da"/>
    </linearGradient>
    <linearGradient id="linear-gradient-36" x1="44.96" y1="403.39" x2="45.96" y2="403.39" gradientTransform="matrix(-36.75, 39, 42.99, 40.51, -15613.35, -17776.53)" xlink:href="#linear-gradient-2"/>
    <linearGradient id="linear-gradient-37" x1="45.48" y1="404.46" x2="46.48" y2="404.46" gradientTransform="matrix(-93, 0, 0, 1112.67, 4324.51, -449814.03)" xlink:href="#linear-gradient-7"/>
    <linearGradient id="linear-gradient-38" x1="44.74" y1="404.86" x2="45.74" y2="404.86" gradientTransform="matrix(83.25, -36, -74.82, -173.02, 26919.71, 71826.08)" xlink:href="#linear-gradient"/>
    <linearGradient id="linear-gradient-39" x1="44.54" y1="401.87" x2="45.54" y2="401.87" gradientTransform="matrix(10.04, 106.93, 13.47, -1.27, -5623.48, -3912.05)" xlink:href="#linear-gradient-15"/>
    <linearGradient id="linear-gradient-40" x1="44.56" y1="401.23" x2="45.56" y2="401.23" gradientTransform="matrix(0, 101.3, 13.75, 0, -5296.51, -4511.82)" gradientUnits="userSpaceOnUse">
      <stop offset="0" stop-color="#4b537d" stop-opacity="0"/>
      <stop offset="0.43" stop-color="#4b537d"/>
    </linearGradient>
    <linearGradient id="linear-gradient-41" x1="44.79" y1="403.18" x2="45.79" y2="403.18" gradientTransform="matrix(-36, 58.5, 39.36, 24.22, -14094.83, -12015.63)" xlink:href="#linear-gradient-15"/>
    <linearGradient id="linear-gradient-42" x1="44.67" y1="404.77" x2="45.67" y2="404.77" gradientTransform="matrix(87, -27, -59.02, -190.17, 20359.76, 78379.66)" xlink:href="#linear-gradient-7"/>
    <linearGradient id="linear-gradient-43" x1="44.53" y1="401.49" x2="45.53" y2="401.49" gradientTransform="matrix(0, 94.81, 14.94, 0, -5760.79, -4219.61)" gradientUnits="userSpaceOnUse">
      <stop offset="0" stop-color="#7c88cc" stop-opacity="0"/>
      <stop offset="0.73" stop-color="#7c88cc"/>
    </linearGradient>
    <linearGradient id="linear-gradient-44" x1="44.52" y1="402.95" x2="45.52" y2="402.95" gradientTransform="matrix(13.01, 103.18, 22.03, -2.78, -9186.22, -3127.45)" xlink:href="#linear-gradient-2"/>
    <linearGradient id="linear-gradient-45" x1="44.68" y1="404.95" x2="45.68" y2="404.95" gradientTransform="matrix(62.25, -28.5, -56.26, -122.89, 20378.96, 51215.88)" xlink:href="#linear-gradient"/>
    <linearGradient id="linear-gradient-46" x1="44.43" y1="403.43" x2="45.43" y2="403.43" gradientTransform="matrix(0, 78.9, 41.89, 0, -16748.15, -3503.7)" gradientUnits="userSpaceOnUse">
      <stop offset="0.3" stop-color="#4b537d" stop-opacity="0"/>
      <stop offset="1" stop-color="#4b537d"/>
    </linearGradient>
    <linearGradient id="linear-gradient-47" x1="45.28" y1="403.95" x2="46.28" y2="403.95" gradientTransform="matrix(-60, 31.5, 54.18, 103.2, -19089.22, -42827.66)" xlink:href="#linear-gradient-2"/>
    <linearGradient id="linear-gradient-48" x1="43.84" y1="404.74" x2="44.84" y2="404.74" gradientTransform="matrix(46.5, 24.75, 40.92, -76.87, -18220.43, 30326.19)" xlink:href="#linear-gradient-2"/>
    <linearGradient id="linear-gradient-49" x1="43.96" y1="404.62" x2="44.96" y2="404.62" gradientTransform="matrix(51, 29.25, 36.39, -63.44, -16609.62, 24732.37)" xlink:href="#linear-gradient-18"/>
    <linearGradient id="linear-gradient-50" x1="44.42" y1="403.44" x2="45.42" y2="403.44" gradientTransform="matrix(0, 77.6, 42.38, 0, -16982.11, -3445.26)" gradientUnits="userSpaceOnUse">
      <stop offset="0.57" stop-color="#a0a8da" stop-opacity="0"/>
      <stop offset="1" stop-color="#a0a8da"/>
    </linearGradient>
    <linearGradient id="linear-gradient-51" x1="44.54" y1="403.64" x2="45.54" y2="403.64" gradientTransform="matrix(10.79, 106.18, 42.26, -4.3, -17286.03, -2651.94)" xlink:href="#linear-gradient-2"/>
    <linearGradient id="linear-gradient-52" x1="44.39" y1="399.81" x2="45.39" y2="399.81" gradientTransform="matrix(0, 74.35, 9.59, 0, -3647.98, -3299.16)" gradientUnits="userSpaceOnUse">
      <stop offset="0" stop-color="#a0a8da" stop-opacity="0"/>
      <stop offset="0.62" stop-color="#a0a8da"/>
    </linearGradient>
    <linearGradient id="linear-gradient-53" x1="44.38" y1="402.31" x2="45.38" y2="402.31" gradientTransform="matrix(0, 72.73, 20.59, 0, -8003.84, -3226.11)" gradientUnits="userSpaceOnUse">
      <stop offset="0.08" stop-color="#5a69a9" stop-opacity="0"/>
      <stop offset="0.81" stop-color="#5a69a9"/>
    </linearGradient>
    <linearGradient id="linear-gradient-54" x1="44.31" y1="404.37" x2="45.31" y2="404.37" gradientTransform="matrix(39.66, 78.75, 56.88, -28.65, -24475.21, 8461.67)" xlink:href="#linear-gradient-2"/>
    <linearGradient id="linear-gradient-55" x1="44.49" y1="402.47" x2="45.49" y2="402.47" gradientTransform="matrix(-14.02, 67.18, 28.34, 5.92, -10612.9, -4988.41)" xlink:href="#linear-gradient-15"/>
    <linearGradient id="linear-gradient-56" x1="44.34" y1="402.42" x2="45.34" y2="402.42" gradientTransform="matrix(0, 68.18, 21.65, 0, -8446.47, -3021.56)" gradientUnits="userSpaceOnUse">
      <stop offset="0.12" stop-color="#4b537d" stop-opacity="0"/>
      <stop offset="0.62" stop-color="#4b537d"/>
    </linearGradient>
    <linearGradient id="linear-gradient-57" x1="44.49" y1="401.4" x2="45.49" y2="401.4" gradientTransform="matrix(-7.51, 79.93, 16.99, 1.6, -6298.19, -3828.09)" xlink:href="#linear-gradient-2"/>
    <linearGradient id="linear-gradient-58" x1="44.28" y1="403.3" x2="45.28" y2="403.3" gradientTransform="matrix(0, 62.34, 37.5, 0, -14797.07, -2758.57)" gradientUnits="userSpaceOnUse">
      <stop offset="0.46" stop-color="#a0a8da" stop-opacity="0"/>
      <stop offset="1" stop-color="#a0a8da"/>
    </linearGradient>
    <linearGradient id="linear-gradient-59" x1="43.61" y1="403.76" x2="44.61" y2="403.76" gradientTransform="matrix(0, 32.47, 60.67, 0, -24077.53, -1310.52)" gradientUnits="userSpaceOnUse">
      <stop offset="0" stop-opacity="0"/>
      <stop offset="1" stop-color="#7c88cc"/>
    </linearGradient>
    <linearGradient id="linear-gradient-60" x1="43.96" y1="404.66" x2="44.96" y2="404.66" gradientTransform="matrix(51, 30, 51.14, -86.93, -22535.53, 34125.71)" xlink:href="#linear-gradient-15"/>
    <linearGradient id="linear-gradient-61" x1="44.16" y1="405.35" x2="45.16" y2="405.35" gradientTransform="matrix(33.75, -10.5, -21.36, -68.67, 7582.27, 28493.94)" xlink:href="#linear-gradient-18"/>
    <linearGradient id="linear-gradient-62" x1="43.65" y1="400.16" x2="44.65" y2="400.16" gradientTransform="matrix(0, 33.44, 10.38, 0, -3899.35, -1458.25)" gradientUnits="userSpaceOnUse">
      <stop offset="0.26" stop-color="#a0a8da" stop-opacity="0"/>
      <stop offset="1" stop-color="#a0a8da"/>
    </linearGradient>
  </defs>
  <title>chanterelle-logo</title>
  <g style="clip-path: url(#clip-path)">
    <g id="Group">
      <g id="Ellipse_2" data-name="Ellipse 2">
        <circle cx="225" cy="225" r="225"/>
      </g>
      <g id="Vector">
        <path d="M11.59,449.67c10.67-12,21.65-23.38,32-35.71,11.28-14,21.34-28.57,32.32-42.86,4-5.19,9.45-8.77,14-13.64,16.77-17.53,33.23-35.39,50-52.92,9.45-10.06,19.51-19.81,29.27-29.55.61-.65,1.53-1.95,2.44-1.95a59.88,59.88,0,0,1,7.62-.32c-.61,2.92-.61,6.49-2.44,8.12-7.93,8.12-16.77,15.58-25,23.7-7.32,7.47-14.63,14.94-21.65,22.73-11.59,13.31-23.48,25.65-37.5,36.36-11.28,8.77-20.12,21.1-29.57,32.47-13.41,15.58-26.22,31.17-39.33,47.08a46.59,46.59,0,0,0-4.27,6.49Z" style="fill: url(#linear-gradient)"/>
      </g>
      <g id="Vector_2" data-name="Vector 2">
        <path d="M.91,412.34c13.72-11,27.74-21.75,41.16-33.44,12.5-11,24.7-22.4,36.28-34.42,7.93-7.79,14.63-16.88,22-25.32,10.67-12,21.65-23.7,32.62-35.71,4.57-4.87,8.54-10.39,13.11-15.26,3.66-4.22,7.32-9.09,11.89-12.34,2.13-1.62,6.4,0,9.45,0-1.22,2.6-1.53,6.17-3.35,8.12C143,287,122,310.07,100.61,332.47c-10.67,11-22.87,20.78-33.23,31.82a157.35,157.35,0,0,1-30.79,25.65c-10.37,6.82-19.51,16.23-29.27,24.35-1.83,1.62-4,2.92-6.1,4.54A46.31,46.31,0,0,1,.91,412.34Z" style="fill: url(#linear-gradient-2)"/>
      </g>
      <g id="Vector_3" data-name="Vector 3">
        <path d="M57.32,449.67l27.44-35.06C96,400,107,385.71,114.94,368.51c5.79-13,15.85-24.35,25.3-35.06,12.2-14,25.61-26.62,39-39.61,2.13-1.95,6.1-1.62,9.45-2.27-.91,3.25-.91,7.14-3,9.42-13.41,13.31-28,25.65-40.55,39.61-10.06,11-18.6,24-26.83,37C106.1,396.43,95.12,416.23,78,431.17c-5.79,5.19-9.76,12.34-14.33,18.51Z" style="fill: url(#linear-gradient-3)"/>
      </g>
      <g id="Vector_4" data-name="Vector 4">
        <path d="M438.41,1.62c-14,24.68-32.62,44.81-54,62.66-7.93,6.49-14.63,14.94-21,23.05C346,109.09,327.13,128.9,305.79,146.1c-3.66,2.92-6.1,7.47-9.45,10.39-1.83,1.62-4.88,1.3-7.32,1.95.3-2.6-.61-5.84.61-7.14,4.88-5.84,9.45-12.66,15.85-16.23,14-7.79,23.48-20.45,34.15-31.82,19.51-20.13,36.89-42.53,59.15-60.39C412.2,32.47,421,15.58,432,1.3A44.36,44.36,0,0,0,438.41,1.62Z" style="fill: url(#linear-gradient-4)"/>
      </g>
      <g id="Vector_5" data-name="Vector 5">
        <path d="M449.09,30.84c-14.94,12.66-30.79,24-44.21,38-15.24,15.58-28.35,33.77-43,50-10.67,11.69-22.26,22.08-33.23,33.44-4.57,4.55-8.54,10.06-13.11,14.61-2.13,1.95-5.79,1.95-8.84,2.92.61-3.25.3-7.79,2.13-9.42C320.12,149,332,138.31,343,127.27c8.84-9.09,17.68-18.51,25.91-28.57a350.49,350.49,0,0,1,77.74-72.08c.91-.65,1.52-1.3,2.44-1.95Z" style="fill: url(#linear-gradient-5)"/>
      </g>
      <g id="Vector_6" data-name="Vector 6">
        <path d="M.91,39C11,47.4,20.73,56.49,31.4,64.29,44.82,74,58.54,83.12,72.56,91.88c17.68,11,32.32,26,46.34,41.56,5.18,5.84,12.2,10.06,18.6,14.61,4.57,3.57,9.76,6.49,14.33,10.39,1.22,1,.91,3.9,1.22,5.84-2.13.32-5.18,1.95-6.1,1-11.89-11.36-28-15.58-38.11-31.17C97.26,115.91,79.27,103.9,61.59,92.86,39.94,79.22,18.9,64.93,1.22,45.78A53.51,53.51,0,0,1,.91,39Z" style="fill: url(#linear-gradient-6)"/>
      </g>
      <g id="Vector_7" data-name="Vector 7">
        <path d="M383.54,449.68c-21-34.41-37.8-71.75-63.11-103.57-12.2-15.58-21.65-33.77-31.71-51.3-1.22-1.95.3-5.52.91-8.44,2.13,1.3,5.49,1.95,6.71,3.9,7.62,13.31,14.33,26.95,22.26,39.94,7.93,12.34,17.38,24,25.91,35.71a65.88,65.88,0,0,1,4,5.84c8.54,16.88,16.77,34.42,25.91,51,4.88,9.42,11.28,17.86,17.07,26.62A67.39,67.39,0,0,1,383.54,449.68Z" style="fill: url(#linear-gradient-7)"/>
      </g>
      <g id="Vector_8" data-name="Vector 8">
        <path d="M365.24,449.68c-18.6-31.17-35.67-63.31-59.15-90.91-4.27-5.19-7.93-11.36-11.59-16.88-7.93-12-15.55-24-23.17-36-1.22-2.27-.61-5.84-.91-8.44,2.74,1,6.71,1,8.23,2.92,4.88,6.49,8.84,14,13.41,20.78,11.59,17.86,24.09,35.39,35.06,53.57,15.24,25,29.57,50.32,44.21,75.33A38.3,38.3,0,0,0,365.24,449.68Z" style="fill: url(#linear-gradient-8)"/>
      </g>
      <g id="Vector_9" data-name="Vector 9">
        <path d="M347,449.68c-14-21.1-26.83-43.18-42.38-63.31-13.41-17.21-26.52-34.42-37.2-53.57-1.83-3.25-5.18-5.84-7.93-8.77-2.13-2.27-4.57-4.55-5.49-7.47-.61-1.95.91-4.55,1.52-7.14,2.13.65,4.57.65,6.1,2.27A162.62,162.62,0,0,1,272.87,326C289,349.35,305.49,372.73,321,396.75c11.28,17.21,21.34,35.06,32,52.92Z" style="fill: url(#linear-gradient-9)"/>
      </g>
      <g id="Vector_10" data-name="Vector 10">
        <path d="M363.72,1.62C357,16.88,350.61,32.47,343.9,47.73,336,65.91,322.26,78.9,308.84,91.88c-8.23,8.12-13.41,17.86-16.46,29.22-2.13,8.12-7.62,15.58-11.89,23.05-.91,1.3-4.27,1.3-6.4,1.62-.3-2.27-1.22-4.87-.3-6.49,6.71-14,12.8-28.25,20.73-41.23C299.7,89.61,307.93,83.44,314,76c7.62-9.09,15.55-17.86,21.34-27.92,8.54-14.94,14.94-31.17,22.26-46.75A38.4,38.4,0,0,0,363.72,1.62Z" style="fill: url(#linear-gradient-10)"/>
      </g>
      <g id="Vector_11" data-name="Vector 11">
        <path d="M449.09,392.86c-11.28-9.42-22.87-18.51-34.15-28.25a189.46,189.46,0,0,0-46.34-29.22c-9.45-3.9-17.07-12-25.61-18.18-5.18-3.57-10.67-5.84-15.55-9.74a172.52,172.52,0,0,1-17.68-15.91c-.91-1-.3-3.9-.61-5.84,1.83,0,4.27-.32,5.49.65,13.41,10.39,26.52,21.43,40.55,31.17,11.59,8.12,24.09,14.61,36.28,22.08,14.33,8.44,28,17.86,39,31.49,4.88,6.17,12.5,10.07,18.6,14.94Z" style="fill: url(#linear-gradient-11)"/>
      </g>
      <g id="Vector_12" data-name="Vector 12">
        <path d="M.91,152.6c4,1.62,8.54,2.27,12.2,4.55,17.07,9.74,36,8.12,54,11.69,11.59,2.27,23.17,3.9,34.45,6.49,5.18,1.3,10.06,4.87,14.94,7.47a211.54,211.54,0,0,1,18.6,10.39c2.74,1.95,6.71,5.84,6.1,8.12-1.22,4.87-5.79,4.55-9.45,2.27-5.49-3.57-11.59-6.82-16.16-11.36-6.71-6.82-14.63-9.42-23.17-11-18-3.25-36.28-5.19-54-9.42-12.8-2.92-25-8.44-37.5-13Z" style="fill: url(#linear-gradient-12)"/>
      </g>
      <g id="Vector_13" data-name="Vector 13">
        <path d="M.91,17.86C22.26,34.74,43.6,51.3,65.24,68.18a28.11,28.11,0,0,0,7.93,4.55C100.61,82.47,118,106.17,138.11,126c1.83,1.62,1.52,5.52,2.13,8.44-2.44-1-5.79-1.3-7.62-2.92-6.71-6.49-13.11-13.64-19.51-20.45C100,97.08,84.76,87.34,68.9,76.95,47,62.66,26.83,45.13,6.1,28.9A67.7,67.7,0,0,1,.61,24.35,46.31,46.31,0,0,0,.91,17.86Z" style="fill: url(#linear-gradient-13)"/>
      </g>
      <g id="Vector_14" data-name="Vector 14">
        <path d="M.91,107.14C18.6,118.83,36,130.52,53.66,141.88A54,54,0,0,0,68.9,148.7c11.89,2.6,24.39,2.27,35.67,6.17,10.67,3.57,20.73,11,30.49,17.21,1.22.65.91,4.55,1.22,6.82h-6.4a1.56,1.56,0,0,1-1.22-.65c-17.07-16.56-38.72-17.21-59.45-21.1A48.84,48.84,0,0,1,53.66,151c-11.28-7.14-22.26-14.61-33.23-22.4C13.72,123.7,7.32,118.51.61,113.64A46.31,46.31,0,0,0,.91,107.14Z" style="fill: url(#linear-gradient-14)"/>
      </g>
      <g id="Vector_15" data-name="Vector 15">
        <path d="M.91,305.2c18-10.06,36-20.78,54.57-29.55,6.71-3.25,15.24-3.57,22.87-3.9,16.77-.32,33.23-1.95,49.09-9.09,1.83-.65,4,0,6.1,0-.61,2.27-.3,6.17-1.52,6.82a81.41,81.41,0,0,1-17.38,6.82,78.51,78.51,0,0,1-14.94,1.95c-7,.32-14,0-20.73,1-7.62,1-15.55,1.62-22.56,4.55C37.5,292.21,19.51,302.27.91,311.69Z" style="fill: url(#linear-gradient-15)"/>
      </g>
      <g id="Vector_16" data-name="Vector 16">
        <path d="M449.09,92.53c-18.9,8.44-38.11,16.23-56.4,25.65-7.32,3.57-13.11,10.71-19.21,16.23-2.74,2.6-5.18,5.84-7.93,8.77-7.62,8.12-15.55,15.91-23.17,24-1.22,1-1.83,3.25-3,3.57-3.66,1.3-7.62,1.95-11.28,2.92,1.52-3.57,2.44-7.79,4.88-10.39,13.11-13.64,26.22-26.95,39.94-39.94,5.49-5.19,12.5-8.44,19.21-12.34,2.74-1.62,6.1-2.6,9.15-3.9,15.85-7.14,32-14.29,47.87-21.43Z" style="fill: url(#linear-gradient-16)"/>
      </g>
      <g id="Vector_17" data-name="Vector 17">
        <path d="M328.66,1.62c-9.15,15.91-18.29,31.82-26.83,47.73a34,34,0,0,0-4.57,14.29c-.61,8.77-4.27,15.91-8.54,23.05-4.88,7.79-8.23,16.56-12.8,24.68-3,5.84-6.1,11.69-10.06,16.88-1.52,1.95-5.18,1.95-7.62,2.6-.3-2.92-1.52-7.79-.3-8.77,13.72-10.71,14.94-29.87,25.91-42.53,4-4.55,5.18-12,7-18.51,3.66-13.31,8.54-25.65,18-36,6.1-6.49,9.45-15.91,14-24A16.79,16.79,0,0,0,328.66,1.62Z" style="fill: url(#linear-gradient-17)"/>
      </g>
      <g id="Vector_18" data-name="Vector 18">
        <path d="M449.08,209.42l-22.87,5.84c-5.79,1.3-11.28,3.9-17.07,3.9-20.43-.32-40.85-1.62-61.59-1.95-10.67-.32-21,1-31.71,1-3,0-6.4-1.3-9.45-1.95,2.44-2.6,4.57-6.82,7.62-7.47,14-3.25,28-1.95,41.77,1.95,2.13.65,4.57,1.62,6.71,1.62,26.52-1,53.35,3.9,78.66-7.79,2.13-1,4.88-1,7.32-1.3A20.15,20.15,0,0,1,449.08,209.42Z" style="fill: url(#linear-gradient-18)"/>
      </g>
      <g id="Vector_19" data-name="Vector 19">
        <path d="M449.09,227.27c-5.49,1.3-11,2.6-16.46,4.22-6.4,1.95-12.5,5.84-18.6,6.17-21.34,1-43,5.19-64.33-1-5.18-1.62-11.28,1-17.07,1.3a85,85,0,0,1-12.8-1c-.61,0-1.52-4.55-1.22-4.87,4-1.95,7.93-4.22,12.2-4.55,7.62-.32,15.24,1.3,22.56,1.95,29,2.27,58.23,5.19,86.28-6.82,3-1.3,6.4-1.3,9.76-1.62A39.67,39.67,0,0,0,449.09,227.27Z" style="fill: url(#linear-gradient-19)"/>
      </g>
      <g id="Vector_20" data-name="Vector 20">
        <path d="M52.74,1.62c9.76,13,18.9,26.62,29.57,39,14.33,16.56,29.88,32.14,45.12,48.05,7.32,7.47,15.55,14.29,22.87,21.75,1.83,1.95,1.52,6.17,2.44,9.09-2.74-1.3-6.1-1.62-8.23-3.57-11.59-11-23.17-21.75-33.84-33.44C96,66.23,82.32,49.35,68.6,32.47,60.37,22.4,53,12,45.43,1.62Z" style="fill: url(#linear-gradient-20)"/>
      </g>
      <g id="Vector_21" data-name="Vector 21">
        <path d="M449.09,355.52c-10.67-4.22-21.65-7.79-32-13C401.83,334.74,386.89,326,372,317.21c-3-1.62-5.79-4.22-8.84-6.49-10.37-7.79-21-15.58-31.4-23.7a124.78,124.78,0,0,1-9.76-9.09c.61-1,1.22-2.27,1.83-3.25,3,1,6.71,1.62,9.45,3.25a162,162,0,0,1,15.85,9.74c3.35,2.27,7.62,4.22,9.76,7.47,7,10.07,16.46,16.56,26.83,21.75,21,10.39,42.07,21.1,63.11,31.82A53.5,53.5,0,0,1,449.09,355.52Z" style="fill: url(#linear-gradient-21)"/>
      </g>
      <g id="Vector_22" data-name="Vector 22">
        <path d="M449.09,431.82c-10.37-7.14-21.34-13.64-31.4-21.43C404,400,391.77,387.66,377.74,378.57c-19.51-12.34-32.32-31.49-47.26-48.7-1.52-1.95-2.44-4.87-3.35-7.14l1.52-1.62c2.13,1,4.27,1.62,5.79,3.25,6.1,6.49,13.11,12.34,17.68,19.81a97.35,97.35,0,0,0,24.39,26.3c24.09,18.18,48.17,36.69,72.26,54.87A46.32,46.32,0,0,1,449.09,431.82Z" style="fill: url(#linear-gradient-22)"/>
      </g>
      <g id="Vector_23" data-name="Vector 23">
        <path d="M118.29,1.62l29.27,58.44c1.83,3.57,2.44,7.79,4.27,11,7,14,14.63,27.27,21.65,41.23,2.13,3.9,2.74,8.77,3.66,13.31,0,.32-3.66,2.6-4,2.27a90.94,90.94,0,0,1-7.62-11.36c-1.22-1.95-1.22-4.87-2.44-6.82-16.77-21.1-20.43-48.7-33.23-72.08C123.48,26,118,13.31,112.19,1.3A38.39,38.39,0,0,0,118.29,1.62Z" style="fill: url(#linear-gradient-23)"/>
      </g>
      <g id="Vector_24" data-name="Vector 24">
        <path d="M400.3,1.62c-17.07,36-42.07,65.58-68.9,93.83-6.4,6.49-12.2,14-18.29,20.45-1.83,1.95-4.57,3.25-7,4.87-.61-.65-1.52-1.3-2.13-1.95,1.22-2.6,1.52-5.84,3.35-7.79,17.07-19.16,33.84-38.64,52.13-56.49,11-10.71,16.77-24.68,25-37.34,3.35-5.19,6.1-10.39,9.45-15.58Z" style="fill: url(#linear-gradient-24)"/>
      </g>
      <g id="Vector_25" data-name="Vector 25">
        <path d="M90.85,449.68c5.49-20.45,17.38-36.69,28-53.9,13.72-22.4,28.66-43.83,47-62,1.52-1.62,4.27-1.95,6.4-2.92.3,2.6,1.52,6.17.61,7.79-3.66,5.19-7.93,9.42-12.2,14-3.35,3.57-8.54,5.52-11,9.42q-22.87,34.58-44.82,70.13c-3.35,5.19-5.18,11.69-7.62,17.53Z" style="fill: url(#linear-gradient-25)"/>
      </g>
      <g id="Vector_26" data-name="Vector 26">
        <path d="M.91,349c13.72-12.66,30.18-19.16,46-27.6,15.55-8.12,32-14.29,45.43-26.3,4.57-4.22,10.37-8.77,18.29-6.17-.61,1.95-.61,3.9-1.52,4.87-8.23,6.82-15.85,14.93-27.44,15.91-3.35.32-7,2.6-10.06,4.55-11.59,8.12-23.17,15.58-36.89,20.45-12.2,4.55-22.87,13.64-34.15,20.78A46.31,46.31,0,0,0,.91,349Z" style="fill: url(#linear-gradient-26)"/>
      </g>
      <g id="Vector_27" data-name="Vector 27">
        <path d="M.91,245.13c6.4-1.3,13.41-1.62,19.21-4.55,19.51-10.06,40.24-9.09,61-9.42,8.23-.32,16.77-1,25-1,2.44,0,5.18,2.27,7.62,3.25-2.44,1.62-4.57,4.55-7,4.87a194.14,194.14,0,0,1-27.44,1.3c-26.83-.65-53,3.9-78.35,12Z" style="fill: url(#linear-gradient-27)"/>
      </g>
      <g id="Vector_28" data-name="Vector 28">
        <path d="M.91,261.36A317.67,317.67,0,0,1,91.77,251.3c7,.32,14-2.27,21-2.92,2.13-.32,4.27,1.62,6.4,2.6-1.52,1.95-3,4.87-4.88,5.19-10.06,1.62-20.12,2.92-30.18,3.57-14.94.65-29.88-.32-44.82.65-7.32.32-14.63,3.57-22.26,4.87-5.49,1-11,1-16.46,1.3A31.61,31.61,0,0,0,.91,261.36Z" style="fill: url(#linear-gradient-28)"/>
      </g>
      <g id="Vector_29" data-name="Vector 29">
        <path d="M449.09,318.18c-22-11.69-43.6-24-65.55-35.39-4.27-2.27-9.76-1.62-14.63-2.92-7.62-1.62-15.24-3.57-22.56-5.84-1.52-.65-2.74-3.25-4-5.19,2.13-.65,4.57-2.6,6.4-1.95,19.82,5.19,39.94,9.09,57.93,21.43,13.11,9.09,28,14.61,42.07,21.75A72.23,72.23,0,0,1,449.09,318.18Z" style="fill: url(#linear-gradient-29)"/>
      </g>
      <g id="Vector_30" data-name="Vector 30">
        <path d="M.91,64.93c21.65,14.61,43.29,28.57,64.63,43.83,10.67,7.47,20.12,16.88,30.18,25.65,1.83,1.62,3,3.9,4.88,6.49-6.4,3.57-11,.32-14-3.57C63.11,108.12,29.88,93.83,1.22,72.73A63.88,63.88,0,0,1,.91,64.93Z" style="fill: url(#linear-gradient-30)"/>
      </g>
      <g id="Vector_31" data-name="Vector 31">
        <path d="M449.08,259.74c-12.8-1-25.61-2.6-38.41-2.6-7.93,0-16.16,2.6-24.09,2.27-14.94-1-29.88-3.25-44.82-5.19-.91,0-2.74-2.92-2.44-3.25.91-1.3,2.44-2.92,3.66-2.92,3.66,0,7.62,1,11.28,1.3,11.28,1,22.87,3.57,33.84,1.95,20.73-2.92,40.85-1.95,60.67,4.22A16.87,16.87,0,0,1,449.08,259.74Z" style="fill: url(#linear-gradient-31)"/>
      </g>
      <g id="Vector_32" data-name="Vector 32">
        <path d="M193,449.67c2.74-16.56,6.1-33.12,8.23-50,.91-8.44-.61-16.88-.91-25.65-.3-10.39-.3-21.1,0-31.49,0-1.62,2.74-3.25,4.27-4.87,1.22,1.95,3.35,3.57,3.35,5.52.3,19.48.61,39,0,58.12-.3,5.84-4.27,11.69-5.18,17.53-1.22,10.06-1.52,20.45-2.13,30.52A59.88,59.88,0,0,1,193,449.67Z" style="fill: url(#linear-gradient-32)"/>
      </g>
      <g id="Vector_33" data-name="Vector 33">
        <path d="M.91,196.43c4.57-.32,9.15-1.3,13.41-.65,11.28,1.3,22.26,1.3,33.54-3.25,7.93-3.25,18-1.95,26.83-1.62a126.5,126.5,0,0,1,24.7,3.9c2.44.65,4.27,4.22,6.1,6.49-2.74.32-5.49,1.3-8.23,1-14.94-1-30.18-5.19-44.21-2.27-17.68,3.9-34.76,1.3-52.13,1.3Z" style="fill: url(#linear-gradient-33)"/>
      </g>
      <g id="Vector_34" data-name="Vector 34">
        <path d="M226.52,449.68c1.22-14.94-2.44-29.22-4.88-43.83-3.35-20.13-2.13-41.23-2.44-61.69,0-1.62,2.74-3.25,4-4.87,1.22,1.62,3.66,3.57,3.35,5.19-4.88,29.22,1.83,57.47,5.49,85.71.91,6.49.3,13,.3,19.48Z" style="fill: url(#linear-gradient-34)"/>
      </g>
      <g id="Vector_35" data-name="Vector 35">
        <path d="M202.13,1.62c2.13,31.82,4.27,63.31,6.1,95.13,0,1,.61,2.27.3,3.25-.91,2.27-2.13,4.22-3,6.49-1.52-1.95-4-3.57-4.27-5.52A83.48,83.48,0,0,1,200,85.71c-.61-18.18-1.22-36.69-1.83-54.87-.3-9.74-1.22-19.48-1.83-28.9A32.9,32.9,0,0,1,202.13,1.62Z" style="fill: url(#linear-gradient-35)"/>
      </g>
      <g id="Vector_36" data-name="Vector 36">
        <path d="M.91,391.23c6.71-5.52,13.72-10.39,19.82-16.23,10.37-9.42,20.12-19.81,30.18-29.22,8.84-8.12,18-15.58,27.13-23.38,1.22-1,3.66-1,6.1-.32C57.62,349,31.4,376,.61,397.4A39.67,39.67,0,0,0,.91,391.23Z" style="fill: url(#linear-gradient-36)"/>
      </g>
      <g id="Vector_37" data-name="Vector 37">
        <path d="M.91,212.66c6.1.32,12.2.65,18.29.65,10.06,0,20.12-.32,30.18-.65,14-.32,28.35-.32,42.38-.32,2.44,0,4.88,1.95,7.32,2.92v2.6c-2.74.65-5.49,1.95-8.23,1.95-17.07.32-34.45,1-51.52.65-12.8-.32-25.61-2.27-38.41-3.57Z" style="fill: url(#linear-gradient-37)"/>
      </g>
      <g id="Vector_38" data-name="Vector 38">
        <path d="M449.09,129.87c-19.82,8.44-39.94,16.88-59.76,25.65-8.23,3.57-16.46,7.14-24.39,10.39-1.83.65-4,1-6.1,1.62-.3-.65-.91-1.3-1.22-1.95,1.83-2.27,3-5.19,5.18-6.49,7-3.57,14-6.82,21.34-9.74,13.11-5.19,26.52-9.74,39.94-14.94,8.54-3.25,16.77-7.14,25.31-11A46.3,46.3,0,0,0,449.09,129.87Z" style="fill: url(#linear-gradient-38)"/>
      </g>
      <g id="Vector_39" data-name="Vector 39">
        <path d="M243.29,449.68c-1.52-17.53-3.35-34.74-4.57-52.27-.91-13.64-1.52-27.6-1.83-41.23,0-2.6,1.83-5.52,3-8.12,1.52,2.6,4.57,5.19,4.57,8.12.61,11-.3,22.08.61,33.12,1.22,20.13,3,40.26,4.57,60.39Z" style="fill: url(#linear-gradient-39)"/>
      </g>
      <g id="Vector_40" data-name="Vector 40">
        <path d="M218.9,1.62c2.74,31.17,5.49,62.34,7.93,93.18.3,2.6-1.83,5.52-2.74,8.12-1.52-2.6-4.57-5.19-4.57-7.79-2.44-31.17-4.27-62.34-6.4-93.51Z" style="fill: url(#linear-gradient-40)"/>
      </g>
      <g id="Vector_41" data-name="Vector 41">
        <path d="M107.62,449.68c16.46-26.62,32.62-53.25,49.09-79.55,1.22-2.27,4-3.57,6.1-5.19l1.83,1c-.3,2.6,0,5.84-1.22,7.79-5.79,8.77-12.5,16.88-18,25.65-10.37,16.56-20.12,33.44-30.18,50.32Z" style="fill: url(#linear-gradient-41)"/>
      </g>
      <g id="Vector_42" data-name="Vector 42">
        <path d="M449.09,167.21c-13.11,5.84-26.22,11.36-39,17.53-4.57,1.95-9.76,3.9-13.41,7.47-8.54,8.12-19.21,7.79-29.27,9.09-1.83.32-4-1-6.4-3.25,31.1-8.77,59.15-24,88.11-37Z" style="fill: url(#linear-gradient-42)"/>
      </g>
      <g id="Vector_43" data-name="Vector 43">
        <path d="M235.67,1.62c.61,7.14,1.22,14.61,2.13,21.75.91,7.79,2.44,15.26,3.66,23.05.3,2.6.91,5.19,1.22,7.79.61,8.12,1.83,15.91,1.83,24,0,5.52-.91,11-1.52,18.18-5.18-4.87-12.8-67.21-13.41-94.81Z" style="fill: url(#linear-gradient-43)"/>
      </g>
      <g id="Vector_44" data-name="Vector 44">
        <path d="M281.4,449.68c-6.71-20.13-5.49-41.23-7.62-62-.61-5.19-2.13-10.39-2.74-15.91-.3-1.95,1.22-4.22,1.83-6.49,1.83,1.3,4.57,1.95,5.18,3.57,1.52,3.9,3,8.12,3,12.34.61,13.64,0,27.6,1.22,41.23.91,9.09,4.27,18.18,6.71,27.27Z" style="fill: url(#linear-gradient-44)"/>
      </g>
      <g id="Vector_45" data-name="Vector 45">
        <path d="M449.08,149.35l-62.2,27.27c-5.49,2.27-11.59,3.9-17.07,5.84l-1.83-3.9c3-1.95,5.79-4.87,9.15-6.17,17.38-7.47,35.06-14.29,52.44-21.43,6.71-2.92,13.11-6.49,19.82-9.74A72.26,72.26,0,0,0,449.08,149.35Z" style="fill: url(#linear-gradient-45)"/>
      </g>
      <g id="Vector_46" data-name="Vector 46">
        <path d="M138.11,1.62C146,17.53,154,33.12,161.89,49c4,8.12,7.32,16.23,10.67,24.68.61,1.62-1.22,4.55-1.83,6.82-1.83-1.3-4-2.27-4.88-3.9-11.89-25-23.48-50-35.06-75Z" style="fill: url(#linear-gradient-46)"/>
      </g>
      <g id="Vector_47" data-name="Vector 47">
        <path d="M.91,324.68c18.9-9.74,37.5-19.48,56.4-29.22,5.49-2.92,11-7.47,18.6-2.27-25,13.64-50,27.6-75,41.23Z" style="fill: url(#linear-gradient-47)"/>
      </g>
      <g id="Vector_48" data-name="Vector 48">
        <path d="M449.09,337.66c-19.82-10.39-39.63-20.45-59.15-30.84-4.27-2.27-8.54-4.87-12.5-7.47-1.83-1.3-3-3.57-4.57-5.19.61-1,.91-1.62,1.52-2.6,3.66,1.62,7.62,2.92,11,4.87,21.34,11,42.38,22.08,63.72,33.44Z" style="fill: url(#linear-gradient-48)"/>
      </g>
      <g id="Vector_49" data-name="Vector 49">
        <path d="M449.08,412.34C431.4,398.7,414,385.07,396.34,371.75c-5.18-3.9-10.37-7.47-15.55-11.69-3.35-2.6-6.71-5.84-10.06-8.44.3-.65.91-1.62,1.22-2.27,1.83.65,3.66.65,5.18,1.62,16.77,13,33.54,26,50.3,38.64,7,5.52,14.33,10.71,21.65,16.23Z" style="fill: url(#linear-gradient-49)"/>
      </g>
      <g id="Vector_50" data-name="Vector 50">
        <path d="M100,1.62c10.37,21.43,20.73,42.53,30.79,64,1.83,3.9,3.35,8.12,5.18,12a8.22,8.22,0,0,1-1.83,1.62C132,77.6,129,76.3,127.74,74c-4-7.47-7.32-15.26-11-22.73l-18.29-37c-1.83-3.9-3.35-8.44-4.88-12.66Z" style="fill: url(#linear-gradient-50)"/>
      </g>
      <g id="Vector_51" data-name="Vector 51">
        <path d="M260.06,449.67c-1.83-22.4-4-44.48-5.49-66.88-.3-3.57,1.22-7.47,1.83-11,1.83,3.25,4.88,6.49,5.18,10.06,2.13,19.16,3.35,38,4.88,57.14.3,3.57-.3,6.82-.3,10.39A38.4,38.4,0,0,1,260.06,449.67Z" style="fill: url(#linear-gradient-51)"/>
      </g>
      <g id="Vector_52" data-name="Vector 52">
        <path d="M185.37,1.62c.61,15.58,1.22,31.17,2.13,47.08.3,6.82,1.83,13.31,2.13,20.13,0,2.27-1.22,4.55-2.13,7.14-1.83-1.62-4.57-2.92-4.88-4.87-1.22-8.12-1.83-16.56-2.44-24.68-.3-6.17,0-12.34,0-18.51,0-8.44.3-17.21.3-25.65A13.44,13.44,0,0,1,185.37,1.62Z" style="fill: url(#linear-gradient-52)"/>
      </g>
      <g id="Vector_53" data-name="Vector 53">
        <path d="M292.07,1.62C289.94,23.38,286,44.48,279,65.26c-1.22,3.57-4.57,6.17-6.71,9.09,0-3.9-1.52-8.44-.3-11.69,7.62-19.48,11.28-39.93,14-61Z" style="fill: url(#linear-gradient-53)"/>
      </g>
      <g id="Vector_54" data-name="Vector 54">
        <path d="M327.13,449.68c-9.76-14-19.21-27.92-29.27-41.56-3.66-5.19-7.62-9.74-4.88-17.21,16.46,17.86,27.44,39.61,41.77,59.09A59.85,59.85,0,0,0,327.13,449.68Z" style="fill: url(#linear-gradient-54)"/>
      </g>
      <g id="Vector_55" data-name="Vector 55">
        <path d="M145.73,449.68a78.88,78.88,0,0,1,5.18-10.06c7.93-12.34,14-25.32,13.72-41.23,0-5.52,3.66-11,5.79-16.23l3.66,1c0,3.25.3,6.49,0,9.42-1.22,7.79-2.44,15.91-4.88,23.7-2.13,7.14-6.1,14-9.15,20.78-1.83,4.22-4.27,8.44-6.1,12.66Z" style="fill: url(#linear-gradient-55)"/>
      </g>
      <g id="Vector_56" data-name="Vector 56">
        <path d="M275.3,1.62c-1.52,24-10.06,46.1-17.68,68.18a16.84,16.84,0,0,0-4-.65c.61-5.19-.61-11.36,1.83-15.58,8.84-16.23,10.37-34.09,14-51.62A32.9,32.9,0,0,1,275.3,1.62Z" style="fill: url(#linear-gradient-56)"/>
      </g>
      <g id="Vector_57" data-name="Vector 57">
        <path d="M177.74,449.68c-2.44-21.43,4-41.56,7.62-62,.3-2.27,2.13-4.22,3-6.49a12.26,12.26,0,0,0,3.35.65c-.61,6.17-1.22,12.66-2.13,18.83-1.83,16.23-4,32.47-5.79,48.7A38.39,38.39,0,0,1,177.74,449.68Z" style="fill: url(#linear-gradient-57)"/>
      </g>
      <g id="Vector_58" data-name="Vector 58">
        <path d="M449.09,50.32C437.5,61.36,425.61,72.4,414,83.44,408.23,89,401.83,93.83,395.73,99A34.17,34.17,0,0,0,393,95.45c18.29-17.53,35.37-37,56.4-51.3A39.68,39.68,0,0,0,449.09,50.32Z"/>
      </g>
      <g id="Vector_59" data-name="Vector 59">
        <path d="M345.43,1.62c-9.76,19.16-19.21,38.31-29.27,57.14-1.22,2.27-4,3.25-5.79,5.19a10.61,10.61,0,0,0-2.44-1.62c2.44-4.55,4.57-9.42,7-14,7.93-15.58,16.16-30.84,24.39-46.43A38.39,38.39,0,0,1,345.43,1.62Z" style="fill: url(#linear-gradient-58)"/>
      </g>
      <g id="Vector_60" data-name="Vector 60">
        <path d="M449.09,112c-19.82,8.44-39.94,17.21-60.67,26,2.13-8.12,38.41-26.62,60.67-32.47Z" style="fill: url(#linear-gradient-59)"/>
      </g>
      <g id="Vector_61" data-name="Vector 61">
        <path d="M449.09,297.08c-15.85-7.79-31.71-15.26-47.26-23.05-1.52-.65-2.44-2.92-3.35-4.55,1.83-.65,4-2.27,5.79-2.27a11.85,11.85,0,0,1,6.4,2.27c11.59,10.06,24.7,16.23,38.72,21.1A46.32,46.32,0,0,0,449.09,297.08Z" style="fill: url(#linear-gradient-60)"/>
      </g>
      <g id="Vector_62" data-name="Vector 62">
        <path d="M449.09,188.31c-13.72,5.84-27.74,11.36-42.38,13.31a14.1,14.1,0,0,0-1.22-3.25c14.63-6.17,29-12.34,43.6-18.18Z" style="fill: url(#linear-gradient-61)"/>
      </g>
      <g id="Vector_63" data-name="Vector 63">
        <path d="M.91,435.06c11.89-11,23.48-22.4,35.37-33.44l2.44,2.6c-12.5,13.64-25.3,26.95-37.8,40.58Z" style="fill: #fff"/>
      </g>
      <g id="Vector_64" data-name="Vector 64">
        <path d="M.91,370.13c10.06-8.44,19.82-17.21,31.4-22.73.61,1.3,1.52,2.27,2.13,3.57-11.28,8.77-22.56,17.21-33.84,26A53.51,53.51,0,0,0,.91,370.13Z" style="fill: #fff"/>
      </g>
      <g id="Vector_65" data-name="Vector 65">
        <path d="M258.54,1.62c-2.13,11-4.27,22.08-6.4,33.44-.91-.32-2.13-.32-3-.65A47.93,47.93,0,0,1,254,1.95,21.69,21.69,0,0,1,258.54,1.62Z" style="fill: url(#linear-gradient-62)"/>
      </g>
      <g id="Vector_66" data-name="Vector 66">
        <path d="M382,1.62c-6.71,12-13.72,24-20.43,35.71-.91-.65-1.83-1-2.74-1.62,3-12.66,11.28-23.05,17.07-34.09Z" style="fill: #fff"/>
      </g>
      <g id="Vector_67" data-name="Vector 67">
        <path d="M420.12,1.62c-7.32,10.06-14.63,19.81-22.26,29.87-.91-.65-1.83-1.62-2.74-2.27,5.79-9.09,11.59-18.51,17.38-27.6Z" style="fill: #fff"/>
      </g>
      <g id="Vector_68" data-name="Vector 68">
        <path d="M401.83,449.68,385.37,422.4a6.75,6.75,0,0,0,1.52-1.3c10.37,6.82,14.63,19.48,22.26,28.57Z" style="fill: #fff"/>
      </g>
      <g id="Vector_69" data-name="Vector 69">
        <path d="M31.4,1.62c5.18,6.17,10.67,12.66,15.85,18.83-.61.65-1.22,1.62-1.83,2.27-7.62-7.14-15.55-14-23.17-21.1Z" style="fill: #fff"/>
      </g>
      <g id="Vector_70" data-name="Vector 70">
        <path d="M444.51,449.67c-5.49-6.17-11.28-12.34-16.77-18.18l1.83-1.95c6.71,5.19,13.11,10.39,19.82,15.58C449.7,448.7,448.17,450.32,444.51,449.67Z" style="fill: #fff"/>
      </g>
      <g id="Vector_71" data-name="Vector 71">
        <path d="M449.09,73.05C443.9,76,439,78.9,433.84,81.49A29,29,0,0,1,432,78.25l17.38-13.64A81.15,81.15,0,0,0,449.09,73.05Z" style="fill: #fff"/>
      </g>
      <g id="Vector_72" data-name="Vector 72">
        <path d="M310.37,1.62c-2.44,4.87-5.18,10.06-7.62,14.94a15.88,15.88,0,0,0-3.35-1.62c1.52-4.55,3.35-8.77,4.88-13.31Z"/>
      </g>
      <g id="Vector_73" data-name="Vector 73">
        <path d="M231.75,315c-1.83-4.87-1-3.64-1.87-8.83-.61-2.6.91-5.52,1.52-8.44,2.74,1,7.62,1.62,7.93,3.25a213,213,0,0,1,3.35,27.6c0,1.3-2.74,4.22-3.66,4.22-1.83-.32-4-2.27-4.88-3.9-.91-1.95-.61-4.87-.61-7.14C233.84,321.43,231.45,315,231.75,315Z" style="fill: #5a69a9"/>
      </g>
      <g id="Vector_74" data-name="Vector 74">
        <path d="M136.59,227.6c-8.23-2.92-15.85-5.52-23.17-8.44-1.22-.32-2.13-2.92-2.13-4.22,0-1,2.13-2.92,3-2.92,9.15,2.27,18.29,4.87,27.44,7.47.91.32,1.83,4.22,1.22,4.55A25.17,25.17,0,0,1,136.59,227.6Z" style="fill: #9ea5d3"/>
      </g>
      <g id="Vector_75" data-name="Vector 75">
        <path d="M209.45,232.47c-2.44,1.62-4.88,4.22-6.4,3.9-5.49-1.95-11.28-4.55-15.85-8.12-1.83-1.3-.91-6.49-1.22-10.06,3,0,6.4-1,8.84.32,4.27,2.27,7.93,5.52,11.59,8.77C207.32,228.25,207.93,229.87,209.45,232.47Z" style="fill: #3c456d"/>
      </g>
      <g id="Vector_76" data-name="Vector 76">
        <path d="M255.79,259.42c-2.13,1.62-4.88,5.52-8.23,6.49-4.57,1.3-10.06-4.55-9.76-10.06.3-6.17,4-9.74,9.45-9.74C253,246.43,254.88,251.62,255.79,259.42Z" style="fill: #3c456d"/>
      </g>
      <g id="Vector_77" data-name="Vector 77">
        <path d="M298.48,275.33c-6.1-1.62-10.37-6.49-12.2-13.31-1.22-4.55,3.66-8.77,7.32-6.17a52.77,52.77,0,0,1,11.28,12.34C307.32,272.73,304.27,276,298.48,275.33Z" style="fill: #5a69a9"/>
      </g>
      <g id="Vector_78" data-name="Vector 78">
        <path d="M292.38,202.92c.91.65,3.35,1.95,3.66,3.57.61,2.27,0,5.84-1.22,7.14a48.59,48.59,0,0,1-12.8,8.12c-4,1.62-6.1-1.62-5.79-5.84C276.83,211,286,202.6,292.38,202.92Z" style="fill: #5a69a9"/>
      </g>
      <g id="Vector_79" data-name="Vector 79">
        <path d="M236.28,154.87c-.91,8.44-3,14-9.15,14.61-1.83.32-6.71-4.55-6.1-5.84,1.83-5.52,5.18-10.71,7.93-16.23C231.71,150.33,234.45,152.92,236.28,154.87Z" style="fill: #5a69a9"/>
      </g>
      <g id="Vector_80" data-name="Vector 80">
        <path d="M245.43,124.67c-.3,3.57-.3,7.14-.91,10.39a5.47,5.47,0,0,1-4.27,3.57c-1.22,0-3.35-2.6-3.35-4.22a158,158,0,0,1-.91-20.78c0-1.95,2.44-3.9,3.66-6.17,1.83,1.62,4.27,3.25,4.88,5.19C245.43,116.56,245.12,120.78,245.43,124.67Z" style="fill: #5a69a9"/>
      </g>
      <g id="Vector_81" data-name="Vector 81">
        <path d="M200,160.71c4,5.84,8.23,9.42,9.15,13.64.91,3.9-2.13,8.44-7.62,7.79-5.18-.65-10.67-6.82-9.15-11.69C193.29,167.21,196.34,165.26,200,160.71Z" style="fill: #d6d6d6"/>
      </g>
      <g id="Vector_82" data-name="Vector 82">
        <path d="M175.3,364.93c1.83-5.84,3-11.36,5.18-16.23.61-1.62,3.35-2.6,5.18-3.9.91,1.95,2.74,3.9,2.74,5.84a72.93,72.93,0,0,1-3.35,16.23c-.91,2.27-3.66,3.57-5.79,5.52A56.6,56.6,0,0,1,175.3,364.93Z" style="fill: #9ea5d3"/>
      </g>
      <g id="Vector_83" data-name="Vector 83">
        <path d="M163.41,206.17a20.69,20.69,0,0,1,7,1,8.05,8.05,0,0,1,3.66,5.84c0,1.3-2.74,3.9-4.57,4.22-4.27.65-8.84,1-12.8-.32-2.44-.65-4.27-4.55-6.4-6.82,2.44-1.3,4.88-2.92,7.32-4.22C158.84,205.52,160.06,206.17,163.41,206.17Z" style="fill: #d6d6d6"/>
      </g>
      <g id="Vector_84" data-name="Vector 84">
        <path d="M357.62,182.14c-1.22,2.27-1.52,3.9-2.44,4.55-5.49,3.25-10.67,6.82-16.46,9.42-1.22.65-4.27-1-5.49-2.6-.61-1,.3-4.55,1.52-5.19a84.24,84.24,0,0,1,16.16-8.12C352.44,178.9,355.18,181.17,357.62,182.14Z" style="fill: #7c88cc"/>
      </g>
      <g id="Vector_85" data-name="Vector 85">
        <path d="M297.87,224.67c4,4.87,8.54,8.12,8.23,11,0,2.92-4.88,7.79-7.93,8.44-4.88,1-9.15-3.25-8.84-8.77C289.94,232.47,294.21,229.55,297.87,224.67Z" style="fill: #5a69a9"/>
      </g>
      <g id="Vector_86" data-name="Vector 86">
        <path d="M267.38,264.93c6.71,0,13.41,7.79,12.5,13-.3,2.27-3.35,5.52-5.49,5.84-4.27.65-11.59-8.12-11-12.66C263.72,268.18,266.46,265.91,267.38,264.93Z" style="fill: #5a69a9"/>
      </g>
      <g id="Vector_87" data-name="Vector 87">
        <path d="M201.22,318.18c-5.18,5.84-8.84,10.06-12.5,14.29-1.83-2.6-4.88-4.87-5.49-7.47-.91-5.19,5.49-13.31,9.45-12.66C195.43,312.66,197.26,315.26,201.22,318.18Z" style="fill: #5a69a9"/>
      </g>
      <g id="Vector_88" data-name="Vector 88">
        <path d="M186.28,184.09c3.66,5.84,7,9.09,8.23,13.31.3,1.62-4,4.55-6.4,7.14-3.35-3.9-7-7.47-9.76-11.69C177.74,192.21,182.32,188.31,186.28,184.09Z" style="fill: #9095af"/>
      </g>
      <g id="Vector_89" data-name="Vector 89">
        <path d="M161.59,193.83c-9.15-.32-15.24-4.87-14-9.74.61-2.27,4.88-5.52,5.79-5.19,4.88,2.92,9.15,6.82,13.41,10.39C164.63,191.23,162.5,193.18,161.59,193.83Z" style="fill: #5a69a9"/>
      </g>
      <g id="Vector_90" data-name="Vector 90">
        <path d="M167.07,226.3c3.66,3.57,8.23,5.84,8.84,9.09,1.22,5.19-3.66,7.14-7.93,7.14-5.18,0-10.37-1.95-10.37-7.79C157.62,232.14,163.11,229.87,167.07,226.3Z" style="fill: #5a69a9"/>
      </g>
      <g id="Vector_91" data-name="Vector 91">
        <path d="M266.16,186c3.66,4.55,7.93,8.12,7.32,9.42-1.83,3.9-4.88,8.44-8.54,10.39-4.27,1.95-7.62-2.92-6.71-6.82C258.84,194.81,262.5,191.56,266.16,186Z" style="fill: #5a69a9"/>
      </g>
      <g id="Vector_92" data-name="Vector 92">
        <path d="M229.88,220.78c4,5.19,7.32,8.44,8.54,12,.3,1.3-4,6.17-6.4,6.49-5.18.65-9.76-2.27-9.76-8.44C222,228.25,225.92,225.65,229.88,220.78Z" style="fill: #5a69a9"/>
      </g>
      <g id="Vector_93" data-name="Vector 93">
        <path d="M282.32,164c-5.79,5.52-9.45,9.42-13.72,13-.3.32-4.57-3.57-5.18-5.84-.91-4.55,5.79-12.34,10.06-12C275.61,159.42,277.74,161.36,282.32,164Z" style="fill: #3c456d"/>
      </g>
      <g id="Vector_94" data-name="Vector 94">
        <path d="M196.65,282.47c-1.22-1.95-4.57-4.22-4.57-6.49.61-5.84,4.57-9.74,10.37-9.42,2.13,0,5.79,3.9,6.1,6.17C208.84,279.87,203,280.84,196.65,282.47Z" style="fill: #5a69a9"/>
      </g>
      <g id="Vector_95" data-name="Vector 95">
        <path d="M310.57,195.93c-1.22-1.95-4.57-4.22-4.57-6.49.61-5.84,4.57-9.74,10.37-9.42,2.13,0,5.79,3.9,6.1,6.17C322.77,193.33,317,194.3,310.57,195.93Z" style="fill: #d6d6d6"/>
      </g>
      <g id="Vector_96" data-name="Vector 96">
        <path d="M226.22,126.95c-1.83,3.25-3.35,5.84-4.88,8.44-2.13-1.95-5.79-3.25-6.4-5.52-.91-4.55-.61-9.74-.3-14.61,0-.65,4.57-1.62,5.18-1A118.8,118.8,0,0,1,226.22,126.95Z" style="fill: #d6d6d6"/>
      </g>
      <g id="Vector_97" data-name="Vector 97">
        <path d="M239.63,217.86C236,213,231.4,208.77,232,207.79a21.4,21.4,0,0,1,9.15-8.44c1.22-.65,6.71,5.19,6.4,7.14C247,210.07,243.29,213,239.63,217.86Z" style="fill: #313f7d"/>
      </g>
      <g id="Vector_98" data-name="Vector 98">
        <path d="M180.79,174c-1.22.65-3.35,3.25-5.49,3.25-4.88.32-11.89-7.79-11-12.34.3-1.95,3-4.87,5.18-4.87C174.39,159.42,181.4,167.53,180.79,174Z" style="fill: #9ea5d3"/>
      </g>
      <g id="Vector_99" data-name="Vector 99">
        <path d="M261,217.53c.91,1.3,4.57,5.19,4.27,5.52a89,89,0,0,1-10.37,11.36c-1.83-2.27-4.88-3.9-5.49-6.49C248.48,223.38,254,217.86,261,217.53Z" style="fill: #6a74ab"/>
      </g>
      <g id="Vector_100" data-name="Vector 100">
        <path d="M242.07,286c4.27-3.57,8.23-7.14,8.54-6.82a44.57,44.57,0,0,1,8.84,11.36c.61,1-4.88,6.49-5.18,6.17C250.3,294.16,247,290.91,242.07,286Z" style="fill: #d6d6d6"/>
      </g>
      <g id="Vector_101" data-name="Vector 101">
        <path d="M265.55,353.9c-1.22,1.95-2.13,4.22-3.66,4.87s-4.57-.32-4.88-1.62q-3.2-8.28-5.49-16.56c-.3-1.3.91-3.9,1.83-4.55s3.66.65,4.27,1.95C260.06,342.53,262.5,348.05,265.55,353.9Z" style="fill: #9ea5d3"/>
      </g>
      <g id="Vector_102" data-name="Vector 102">
        <path d="M139.63,236.36c4,3.57,8.84,5.84,9.45,8.77.91,5.19-4,7.47-8.23,6.49-3.66-1.3-7-4.55-10.37-6.82C133.23,242.21,135.67,239.94,139.63,236.36Z" style="fill: #d6d6d6"/>
      </g>
      <g id="Vector_103" data-name="Vector 103">
        <path d="M185.67,263.64c-3-4.55-6.4-6.82-6.4-9.09,0-5.84,4-9.42,9.45-9.09,2.74.32,5.18,3.57,7.62,5.52C193.29,254.87,190.24,258.44,185.67,263.64Z" style="fill: #313f7d"/>
      </g>
      <g id="Vector_104" data-name="Vector 104">
        <path d="M217.38,263c-4-4.87-6.4-8.12-9.15-11.69,2.44-1.95,5.18-5.52,7.62-5.52,4.57,0,9.76,2.27,9.15,8.44C224.7,256.82,221,259.09,217.38,263Z" style="fill: #d6d6d6"/>
      </g>
      <g id="Vector_105" data-name="Vector 105">
        <path d="M254.88,106.49c-2.74-4.55-.61-22.08,3.35-24.35,1.52-.65,5.18,1,6.1,2.6C266.46,89.29,259.76,103.9,254.88,106.49Z" style="fill: #5a69a9"/>
      </g>
      <g id="Vector_106" data-name="Vector 106">
        <path d="M283.23,245.78c-4.57,3.57-7.32,7.14-10.06,7.47-2.44,0-6.4-3.57-7.62-6.49-1.52-3.9,5.18-10.71,8.84-9.42C277.13,238.31,279,241.56,283.23,245.78Z" style="fill: #9095af"/>
      </g>
      <g id="Vector_107" data-name="Vector 107">
        <path d="M236.59,279.55c-3,2.27-6.1,6.49-8.84,6.17s-5.18-4.87-7.93-7.79c2.44-2.6,4.88-7.14,7.32-7.47,3-.32,6.1,3.57,9.15,5.52A14.15,14.15,0,0,1,236.59,279.55Z" style="fill: #6a74ab"/>
      </g>
      <g id="Vector_108" data-name="Vector 108">
        <path d="M294.21,172.08c.91,2.27,2.74,4.55,2.74,6.82,0,5.19-7,12.66-10.67,11.69-1.83-.65-4.88-4.87-4.27-5.84,2.44-4.87,5.79-9.09,8.84-13.64C292.07,171.43,293.29,171.75,294.21,172.08Z" style="fill: #9ea5d3"/>
      </g>
      <g id="Vector_109" data-name="Vector 109">
        <path d="M169.51,144.48c-4.27,2.27-6.1,4.22-7.93,4.55-4.88,0-11.28-8.44-10.06-13,.61-1.95,4.88-4.55,5.49-4.22C161,135.06,164.33,139.29,169.51,144.48Z" style="fill: #9ea5d3"/>
      </g>
      <g id="Vector_110" data-name="Vector 110">
        <path d="M324.09,266.23c-5.18-4.22-9.15-7.79-13.41-11,1.83-1.62,3.35-4.87,5.49-5.19,5.79-1,14,4.87,13.72,9.09C329.57,260.71,327.13,262.66,324.09,266.23Z" style="fill: #5a69a9"/>
      </g>
      <g id="Vector_111" data-name="Vector 111">
        <path d="M221.34,212.66c-2.44,1.62-5.79,5.19-7,4.55a39.33,39.33,0,0,1-9.76-9.42c-.3-.32,4-6.17,4.88-5.84,4.27,1.62,8.23,4.87,12.2,7.47A10.63,10.63,0,0,1,221.34,212.66Z" style="fill: #5a69a9"/>
      </g>
      <g id="Vector_112" data-name="Vector 112">
        <path d="M263.72,150.32a115.72,115.72,0,0,1-12.2,9.74c-.3.32-4.88-4.22-4.88-6.17.3-5.52,3.35-10.06,9.15-9.74C258.23,144.16,260.06,147.08,263.72,150.32Z" style="fill: #d6d6d6"/>
      </g>
      <g id="Vector_113" data-name="Vector 113">
        <path d="M244.51,189c-1.83-2.92-5.18-6.17-4.57-8.77.61-2.92,4.27-7.14,6.71-7.14,2.13-.32,6.71,4.22,6.71,6.82,0,2.92-3.35,6.17-5.18,9.42A14,14,0,0,0,244.51,189Z" style="fill: #9ea5d3"/>
      </g>
      <g id="Vector_114" data-name="Vector 114">
        <path d="M204.88,124.35c-4,3.57-7.62,7.14-7.93,6.82-3-2.6-6.1-5.84-7.62-9.74-.61-1.3,3.35-4.55,5.18-6.82C197.56,117.53,200.3,120.13,204.88,124.35Z" style="fill: #5a69a9"/>
      </g>
      <g id="Vector_115" data-name="Vector 115">
        <path d="M193.6,149.68c-3.66,2.92-7.32,6.17-7.32,5.84a64.07,64.07,0,0,1-8.84-11.69c-.3-.32,4.57-5.19,5.18-4.87C186.28,141.56,189.33,145.13,193.6,149.68Z" style="fill: #5a69a9"/>
      </g>
      <g id="Vector_116" data-name="Vector 116">
        <path d="M210.37,287.34c3,4.55,6.71,8.77,6.1,9.09a41.81,41.81,0,0,1-9.76,8.44c-.3.32-5.18-4.87-4.57-6.17C203.66,295.13,206.71,292.21,210.37,287.34Z" style="fill: #313f7d"/>
      </g>
      <g id="Vector_117" data-name="Vector 117">
        <path d="M190.24,98.38c-1.83,3.25-3,5.19-4.27,7.47-2.13-1.62-4.27-2.92-6.1-4.55-.3,0-.3-.32-.3-.65-.3-3.9-.91-7.79-.61-11.69,0-.32,4-1.62,4.57-1.3C186,90.58,187.8,94.48,190.24,98.38Z" style="fill: #5a69a9"/>
      </g>
      <g id="Vector_118" data-name="Vector 118">
        <path d="M225.31,320.45c-4.88,3.9-7.62,6.82-11,8.12-.91.32-5.49-5.19-5.18-5.84a27.44,27.44,0,0,1,8.23-8.77C218.29,313.31,221.34,316.88,225.31,320.45Z" style="fill: #d6d6d6"/>
      </g>
      <g id="Vector_119" data-name="Vector 119">
        <path d="M232.32,187.66c-4.57,3.25-7.32,6.49-9.45,6.17-2.44-.32-4.27-3.9-6.71-5.84,2.13-2.27,4-6.17,6.1-6.49C225,181.49,227.44,184.74,232.32,187.66Z" style="fill: #9ea5d3"/>
      </g>
      <g id="Vector_120" data-name="Vector 120">
        <path d="M215.55,148.05c-3.35,2.92-6.1,6.49-7,5.84a15.7,15.7,0,0,1-6.4-7.14c-.3-1,3.35-5.84,4-5.52C209.15,142.53,211.59,145.13,215.55,148.05Z" style="fill: #9ea5d3"/>
      </g>
    </g>
  </g>
</svg>
