<svg xmlns="http://www.w3.org/2000/svg" viewBox="0 0 109 114.7"><defs><style>.cls-1{fill:#fff;}.cls-2{fill:none;stroke:#fff;stroke-miterlimit:10;stroke-width:2px;}.cls-3,.cls-7{fill:#a0a8da;}.cls-3{stroke:#fefefe;stroke-width:0.43px;}.cls-4{fill:#5c6bc0;}.cls-5{fill:#6a7ed3;}.cls-6{fill:#7886cb;}</style></defs><title>Artboard 15</title><g id="Layer_8" data-name="Layer 8"><path class="cls-1" d="M90.71,48.1c-1-3.17-4-3.17-3.43-7.39s2.38-4.76,0-7.4a12.88,12.88,0,0,0-4.49-3.43s-4.75.53-3.7-1.32a6.81,6.81,0,0,1,3.17-2.64s1.32-3.7-5-4.23-7.13,3.7-9.77.8S59,16.15,55.59,15.88a6.17,6.17,0,0,1-2.81-1c-.91-.53-1.55-.94-2.5-.26a.72.72,0,0,0-.23.17c-1.85,1.58-5,.79-6.61,2.64s-2.37,4.22-6.33,4.22a12.4,12.4,0,0,0-6.61,1.85s-5,2.12-6.6,3.7-8.71,5-9.24,7.92S10.43,37.8,11,40.71s4,4.22,5,4L17,44.41s1.58,5.8,4.22,5.8a4.1,4.1,0,0,0,1.87-.66,3.07,3.07,0,0,0,3.15-.66c2.64-2.37,5.54-1.32,7.13.8s4,7.65,4,10.56c0,.57,0,1.17,0,1.76.06,7.68.23,22,.23,22s.27,7.65,0,11.09c-.24,3.13,2.84,5.82,9.8,7.27h0l.42.08.26,0c.46.09.92.17,1.41.24,8.45,1.33,6.6-2.11,6.6-2.11s-3.43-6.6-4-9.77-1.32-4,.26-12.67a22.33,22.33,0,0,1,1.06-5.29c1.06-3.69,4.75-9.77,6.07-12.94.17-.4.36-.79.56-1.17,2.61-1.2,4.2-1.73,4.2-1.73l1.32-2.64L67,55.49l.53-2.11L68.27,55l1.58-3.17.79,1.32L72,50.74l.27,1.85,1.82-1.22,1.35-.89,1.85.79-2.12.79,4,.27-2.9.79,2.9,1.32-1,.79,3.17.26.8-.4a3.18,3.18,0,0,0,2.1-.12c2.64-.8,3.44-3.7,5-5.28S91.77,51.27,90.71,48.1Z"/><path class="cls-2" d="M90.71,48.1c-1-3.17-4-3.17-3.43-7.39s2.38-4.76,0-7.4a12.88,12.88,0,0,0-4.49-3.43s-4.75.53-3.7-1.32a6.81,6.81,0,0,1,3.17-2.64s1.32-3.7-5-4.23-7.13,3.7-9.77.8S59,16.15,55.59,15.88a6.17,6.17,0,0,1-2.81-1c-.91-.53-1.55-.94-2.5-.26a.72.72,0,0,0-.23.17c-1.85,1.58-5,.79-6.61,2.64s-2.37,4.22-6.33,4.22a12.4,12.4,0,0,0-6.61,1.85s-5,2.12-6.6,3.7-8.71,5-9.24,7.92S10.43,37.8,11,40.71s4,4.22,5,4L17,44.41s1.58,5.8,4.22,5.8a4.1,4.1,0,0,0,1.87-.66,3.07,3.07,0,0,0,3.15-.66c2.64-2.37,5.54-1.32,7.13.8s4,7.65,4,10.56c0,.57,0,1.17,0,1.76.06,7.68.23,22,.23,22s.27,7.65,0,11.09c-.24,3.13,2.84,5.82,9.8,7.27h0l.42.08.26,0c.46.09.92.17,1.41.24,8.45,1.33,6.6-2.11,6.6-2.11s-3.43-6.6-4-9.77-1.32-4,.26-12.67a22.33,22.33,0,0,1,1.06-5.29c1.06-3.69,4.75-9.77,6.07-12.94.17-.4.36-.79.56-1.17,2.61-1.2,4.2-1.73,4.2-1.73l1.32-2.64L67,55.49l.53-2.11L68.27,55l1.58-3.17.79,1.32L72,50.74l.27,1.85,1.82-1.22,1.35-.89,1.85.79-2.12.79,4,.27-2.9.79,2.9,1.32-1,.79,3.17.26.8-.4a3.18,3.18,0,0,0,2.1-.12c2.64-.8,3.44-3.7,5-5.28S91.77,51.27,90.71,48.1Z"/><path class="cls-3" d="M52.42,78.21c-1.58,8.71-.79,9.5-.26,12.67s4,9.77,4,9.77,1.85,3.44-6.6,2.11-12.15-4.22-11.89-7.65,0-11.09,0-11.09-.26-22.19-.26-26.15v-4L37.11,46l11.35-7.13,13.73,6.6,1.32,9a17.55,17.55,0,0,0-4,5.54c-1.32,3.17-5,9.25-6.07,12.94A22.33,22.33,0,0,0,52.42,78.21Z"/><path class="cls-4" d="M62.19,45.23l1.32,9a17.66,17.66,0,0,0-4,5.55c-1.32,3.17-5,9.24-6.07,12.94A22.22,22.22,0,0,0,52.42,78c-1.58,8.71-.79,9.51-.26,12.67s4,9.78,4,9.78,1.85,3.43-6.6,2.11c-.74-.11-1.43-.24-2.09-.38a5.68,5.68,0,0,0-1.35-3.85c-1.58-2.11-1.58-9.24-1.58-9.24l4.75,11.62a13.12,13.12,0,0,0,0-7.13c-1-4.23-.52-7.13-.79-13.73s2.11-8.45,2.11-8.45l3.17-7.13Z"/><path class="cls-5" d="M20.47,47.84s3.17,3.43,5.81,1,5.54-1.32,7.13.8,4,7.65,4,10.56.26,6.6.26,6.6L39,56l.53,6.08,1.59-7.93.26,7.13.53,4a32.24,32.24,0,0,1,1.06-8.18c1-3.17.26-3.17,1-3.17s-.26,5.28-.53,6.34a26.46,26.46,0,0,0-.26,4,14.7,14.7,0,0,1,1.58-5.55c1.32-2.11,3.7-5.81,3.7-5.81l-2.38,7.93-1.58,4L49,57.87l-2.38,6.87,4.76-5.81L49,64.74l.79,1.32a28,28,0,0,1,2.38-5,12.1,12.1,0,0,1,3.17-3.7l-3.17,7.13L51.37,69S53,63.42,54.8,61.57l1.85-1.85-2.91,6.34-.26,3.43s1.06-7.92,4.75-9.77a51.33,51.33,0,0,1,6.08-2.64l.79-1.59.53-1.05L67,55.49l.53-2.11L68.27,55l1.58-3.17.79,1.32L72,50.74l.27,1.85,1.82-1.22,1.35-.89,1.85.79-2.12.79,4,.27-2.9.79,2.9,1.32-1,.79,3.17.26,3.7-1.84S82.53,47.57,79.36,46s-21.13,2.64-21.13,2.64L56.65,37.54l-14-1.85-6.86,7.92L30,37.8S19.68,46.52,20.47,47.84Z"/><path class="cls-4" d="M43.18,39.12c-.63.49-6.6,2.38-5.28,4.23s2.37,3.17,2.64,4.49a35,35,0,0,0,2.11,5l.53,2.91.2-1.91.33-3.11v-4s2.37-5.54,1.85-2.9a8.57,8.57,0,0,0-.27,3.43c0,1.32-.26,4.75-.26,4.75s.26-2.11.26-3.43a12.83,12.83,0,0,1,1.06-3.7s2.11.27,1.06,3.17a53.53,53.53,0,0,1-2.12,5s2.91-2.64,3.7-4.23a22.37,22.37,0,0,0,1.32-4.75,5.74,5.74,0,0,1-.53,3.17,25.58,25.58,0,0,0-1.32,5.54,12.05,12.05,0,0,0,1.59-2.37c.26-.79,2.37-4.49,2.37-4.49s-.53,2.38-.79,4.49a5.66,5.66,0,0,1-1.32,3.17L53.48,50l.79-2.64,1.59-1.58.26-4.49S46.61,36.48,43.18,39.12Z"/><path class="cls-6" d="M55.59,15.88a6.17,6.17,0,0,1-2.81-1c-1-.58-1.65-1-2.73-.09-1.85,1.58-5,.79-6.61,2.64s-2.37,4.22-6.33,4.22a12.4,12.4,0,0,0-6.61,1.85s-5,2.12-6.6,3.7-8.71,5-9.24,7.92S10.43,37.8,11,40.71s4,4.22,5,4L17,44.41s1.58,5.8,4.22,5.8,8.72-6.6,9.24-7.39L31,42s5,8.18,7.13,8.18,6.08,1.32,5-1.58S39,41,42.92,40.71s9.77,1,11.35,3.17,2.64,5.28.53,6.86,0,3.43,4,3.17S68,48.37,73,48.89s6.07,0,7.13,2.91,1.32,4,4,3.17,3.44-3.7,5-5.28,2.64,1.58,1.58-1.59-4-3.17-3.43-7.39,2.38-4.76,0-7.4a12.88,12.88,0,0,0-4.49-3.43s-4.75.53-3.7-1.32a6.81,6.81,0,0,1,3.17-2.64s1.32-3.7-5-4.23-7.13,3.7-9.77.8S59,16.15,55.59,15.88Z"/><path class="cls-7" d="M50.31,18.26c-1.06,2.38-.53,4.49-1.58,5.55s-3.44.53-2.91,4.49-.53,5,1.32,8.45,6.34,6.34,9,4.49-.26-2.38,3.7-5,1-1.59,6.86-2.91,7.93-2.64,7.93-2.64a7.65,7.65,0,0,0-5.29-.53c-2.9.8-2.11.27-5,1.85A35.87,35.87,0,0,1,59,34.37s-1.58-2.91,2.12-4.49a17.77,17.77,0,0,0,5.81-4s-1.32-.26-4.23,1.32-6.34,4-6.86,5.28a54.58,54.58,0,0,1-3.17,5.28S50.31,35.16,51.37,32s2.11-4.22,2.37-7.39.27-5.28.27-5.28a15,15,0,0,0-2.12,4C51.37,25.13,50.31,18.26,50.31,18.26Z"/><path class="cls-7" d="M25.49,28.82s-4,4-6.08,6.61-6.34,2.37-3.43,4,3.17-.79,5.81-.27,1.32-1.32.26,2.64-5.81,8.19.79,5.81,8.46-7.13,7.93-7.92S26,36,26,36s-2.9,3.69-2.37,1,3.7-4.22,4-6.34S27.07,26.71,25.49,28.82Z"/><path class="cls-4" d="M50.57,16.15c-2.64,1.85-2.9,1.58-4.22,3.17s1.85,0-1.32,1.58A7.93,7.93,0,0,1,39.75,22a13.71,13.71,0,0,0-5.55,2.38c-2.38,1.58-3.7,2.64-4.49,2.11s-1.32-1.59-3.43,0a36.33,36.33,0,0,1-4.75,2.9s5.54-3.17,6.6-1.05-.79.52,4.49,4.49,8.18,3.43,8.18,3.43S28.92,29.62,31.56,27s4.49-2.64,6.87-3.17,2.37-1.06,3.43,1.58a22.71,22.71,0,0,0,1.72,3.37,16.42,16.42,0,0,0,.92,1.38s1.32.8,0-2.11-2.38-5.28-1.32-5.54,2.9-2.64,4-1.06l1.59,2.38s-1.59-4.49,0-5,2.9-1.32,3.16-.26,2.12.79,2.12.79-2.38-6.08-4-4.49S50.57,16.15,50.57,16.15Z"/><path class="cls-4" d="M38.69,38.86s-4.22-4-7.92-3.7-8.45,0-7.13,1.85,4.75-1.58,7.39-.53S38.69,38.86,38.69,38.86Z"/><path class="cls-4" d="M53.22,42.29c.79.27,5.8,2.91,4.22,5.28S55.33,51.8,59,51.8s7.4-.27,7.4-.27-8.72-3.69-8.19-7.39,2.64-4.75,5-2.64a21.63,21.63,0,0,0,6.34,3.43s.53-3.69-5-4.75c0,0,2.11-1.58,4-.26a38.64,38.64,0,0,1,6.08,5.54c1.84,2.11,3.43,5.28,6.33,6.34a5.22,5.22,0,0,0,5-.8l-.26-3.69h2.64s-2.38-3.7-3.7-1.58S86,51.27,79.36,46,72,38.86,68.53,38.33l-5,.53,2.38,2.9S61.66,37,59,39.92A6.81,6.81,0,0,1,53.22,42.29Z"/></g></svg>