<svg width="300" height="300" viewBox="0 0 300 300" version="1.1" xmlns="http://www.w3.org/2000/svg" xmlns:xlink="http://www.w3.org/1999/xlink">
<g id="Canvas" fill="none">
<g id="shroom">
<mask id="mask0" mask-type="alpha" maskUnits="userSpaceOnUse" x="0" y="0" width="300" height="300">
<g id="Ellipse">
<circle cx="150" cy="150" r="150" fill="#BB6BD9"/>
</g>
</mask>
<g mask="url(#mask0)">
<g id="Group">
<g id="Ellipse_2">
<circle cx="150" cy="150" r="150" fill="black"/>
</g>
<g id="Vector">
<path d="M 0 117.965C 7.11382 109.957 14.4309 102.381 21.3415 94.1558C 28.8618 84.8485 35.5691 75.1082 42.8862 65.5844C 45.5285 62.1212 49.187 59.7403 52.2358 56.4935C 63.4146 44.8052 74.3903 32.9004 85.5691 21.2121C 91.8699 14.5022 98.5772 8.00865 105.081 1.51514C 105.488 1.08224 106.098 0.216463 106.707 0.216463C 108.333 1.32024e-05 110.163 0 111.789 0C 111.382 1.94805 111.382 4.329 110.163 5.41125C 104.878 10.8225 98.9837 15.8009 93.4959 21.2121C 88.6179 26.1905 83.7398 31.1688 79.065 36.3636C 71.3414 45.2381 63.4146 53.4632 54.0651 60.6061C 46.5447 66.4502 40.6504 74.6753 34.3496 82.2511C 25.4065 92.6407 16.8699 103.03 8.13008 113.636C 7.11382 114.935 6.09756 116.45 5.28455 117.965C 3.45528 117.965 1.62602 117.965 0 117.965Z" transform="translate(7.72363 181.818)" fill="url(#paint0_linear)"/>
</g>
<g id="Vector_2">
<path d="M 0 104.81C 9.14634 97.4507 18.4959 90.3078 27.439 82.5156C 35.7724 75.1563 43.9024 67.5806 51.626 59.5719C 56.9106 54.3771 61.3821 48.3165 66.2602 42.6888C 73.374 34.6801 80.6911 26.8879 88.0081 18.8793C 91.0569 15.6325 93.6992 11.9529 96.748 8.70611C 99.187 5.89226 101.626 2.6455 104.675 0.481C 106.098 -0.601251 108.943 0.481 110.976 0.481C 110.163 2.2126 109.959 4.59355 108.74 5.89226C 94.7154 21.2602 80.6911 36.6282 66.4634 51.5632C 59.3496 58.9225 51.2195 65.4161 44.3089 72.7754C 38.0081 79.4853 31.3008 85.113 23.7805 89.8749C 16.8699 94.4204 10.7724 100.697 4.26829 106.109C 3.04878 107.191 1.62601 108.057 0.203249 109.139C -3.09944e-06 107.624 0 106.325 0 104.81Z" transform="translate(0.609741 170.082)" fill="url(#paint1_linear)"/>
</g>
<g id="Vector_3">
<path d="M 0 105.411C 6.09756 97.619 12.1951 89.8268 18.2927 82.0346C 25.813 72.2943 33.1301 62.7706 38.4146 51.2987C 42.2764 42.6407 48.9837 35.0649 55.2845 27.9221C 63.4146 18.6147 72.3577 10.1732 81.3008 1.51514C 82.7236 0.216444 85.3659 0.4329 87.6016 0C 86.9919 2.1645 86.9919 4.76189 85.5691 6.27704C 76.626 15.1515 66.8699 23.3766 58.5366 32.684C 51.8293 40.0433 46.1382 48.7013 40.6504 57.3593C 32.5203 69.9134 25.2033 83.1169 13.8211 93.0736C 9.95935 96.5368 7.31707 101.299 4.26829 105.411C 2.64227 105.411 1.42276 105.411 0 105.411Z" transform="translate(38.2115 194.372)" fill="url(#paint2_linear)"/>
</g>
<g id="Vector_4">
<path d="M 99.6243 0.216447C 90.2747 16.6667 77.8764 30.0866 63.6487 41.9913C 58.3642 46.3204 53.8926 51.9481 49.6243 57.3593C 38.039 71.8615 25.4373 85.0649 11.2097 96.5368C 8.77068 98.4848 7.14465 101.515 4.90888 103.463C 3.68937 104.545 1.65686 104.329 0.0308454 104.762C 0.234097 103.03 -0.375665 100.866 0.437343 100C 3.68938 96.1039 6.73815 91.5584 11.0064 89.1775C 20.356 83.9827 26.6569 75.5411 33.7707 67.9654C 46.7788 54.5455 58.3642 39.6104 73.2016 27.7056C 82.1447 20.7792 88.039 9.52381 95.356 0C 96.982 0.21645 98.2016 0.216447 99.6243 0.216447Z" transform="translate(192.652 0.865855)" fill="url(#paint3_linear)"/>
</g>
<g id="Vector_5">
<path d="M 94.9187 4.11256C 84.9593 12.5541 74.3902 20.1299 65.4471 29.4372C 55.2845 39.8268 46.5447 51.9481 36.7886 62.7706C 29.6748 70.5628 21.9512 77.4892 14.6341 85.0649C 11.5854 88.0952 8.94308 91.7749 5.8943 94.8052C 4.47153 96.1039 2.03252 96.1039 0 96.7533C 0.406504 94.5888 0.203246 91.5584 1.42276 90.4762C 8.94308 82.9004 16.8699 75.7576 24.187 68.3983C 30.0813 62.3377 35.9756 56.0606 41.4634 49.3507C 56.504 30.5195 73.7805 14.5022 93.2927 1.2987C 93.9024 0.865798 94.3089 0.4329 94.9187 0C 94.9187 1.2987 94.9187 2.59741 94.9187 4.11256Z" transform="translate(204.472 16.4502)" fill="url(#paint4_linear)"/>
</g>
<g id="Vector_6">
<path d="M 0 0C 6.70732 5.62771 13.2114 11.6883 20.3252 16.8831C 29.2683 23.3766 38.4146 29.4372 47.7642 35.2814C 59.5528 42.6407 69.3089 52.5974 78.6585 62.987C 82.1138 66.8831 86.7886 69.697 91.0569 72.7273C 94.1057 75.1082 97.561 77.0563 100.61 79.6537C 101.423 80.303 101.219 82.2511 101.423 83.5498C 100 83.7662 97.9675 84.8485 97.3577 84.1991C 89.4309 76.6234 78.6585 73.8095 71.9512 63.4199C 64.2276 51.2987 52.2358 43.29 40.4472 35.9307C 26.0163 26.8398 11.9919 17.316 0.203249 4.54545C -3.10441e-06 2.81385 0 1.51515 0 0Z" transform="translate(0.609741 25.974)" fill="url(#paint5_linear)"/>
</g>
<g id="Vector_7">
<path d="M 63.5179 108.874C 49.4935 85.9307 38.3146 61.039 21.4447 39.8269C 13.3146 29.4372 7.01379 17.316 0.306476 5.62771C -0.506532 4.32901 0.509735 1.94805 0.916239 -6.60554e-06C 2.339 0.865794 4.57477 1.29869 5.38778 2.59739C 10.4691 11.4718 14.9406 20.5628 20.2252 29.2208C 25.5097 37.4459 31.8105 45.2381 37.5016 53.0303C 38.5179 54.329 39.3309 55.6277 40.1439 56.9264C 45.8349 68.1818 51.3227 79.8701 57.4203 90.9091C 60.6723 97.1861 64.9407 102.814 68.8024 108.658C 66.9732 108.874 65.1439 108.874 63.5179 108.874Z" transform="translate(192.173 190.909)" fill="url(#paint6_linear)"/>
</g>
<g id="Vector_8">
<path d="M 63.2114 101.515C 50.813 80.7359 39.4309 59.3074 23.7805 40.9091C 20.935 37.4459 18.4959 33.3333 16.0569 29.6537C 10.7724 21.645 5.69105 13.6364 0.60975 5.6277C -0.203258 4.11255 0.20324 1.73161 -1.24055e-05 1.32111e-05C 1.82926 0.649364 4.47156 0.64935 5.48782 1.94805C 8.73985 6.27706 11.3821 11.2554 14.4309 15.8009C 22.1545 27.7056 30.4878 39.3939 37.8049 51.5151C 47.9675 68.1818 57.5203 85.0649 67.2764 101.732C 65.8537 101.515 64.6341 101.515 63.2114 101.515Z" transform="translate(180.284 198.268)" fill="url(#paint7_linear)"/>
</g>
<g id="Vector_9">
<path d="M 62.0861 93.5065C 52.7365 79.4372 44.1999 64.7186 33.834 51.2987C 24.8909 39.8268 16.1511 28.355 9.03726 15.5844C 7.81775 13.4199 5.582 11.6883 3.75273 9.74026C 2.32996 8.22511 0.703942 6.70995 0.0941861 4.7619C -0.312318 3.4632 0.703942 1.7316 1.11045 0C 2.53321 0.4329 4.15923 0.432894 5.17549 1.51514C 7.81776 4.54545 10.46 7.79219 12.6958 11.0389C 23.4682 26.6234 34.4438 42.2078 44.8096 58.2251C 52.33 69.697 59.0373 81.6017 66.1511 93.5065C 64.7283 93.5065 63.5088 93.5065 62.0861 93.5065Z" transform="translate(169.215 206.277)" fill="url(#paint8_linear)"/>
</g>
<g id="Vector_10">
<path d="M 60.2234 0.216447C 55.7518 10.3896 51.4835 20.7792 47.012 30.9524C 41.7274 43.0736 32.5811 51.7316 23.638 60.3896C 18.1502 65.8009 14.6949 72.2944 12.6624 79.8701C 11.2396 85.2814 7.5811 90.2597 4.73557 95.2381C 4.12581 96.1039 1.89006 96.1039 0.467294 96.3203C 0.264042 94.8052 -0.345727 93.0736 0.264029 91.9913C 4.73557 82.684 8.80062 73.1602 14.0852 64.5022C 17.5405 58.8744 23.0282 54.7619 27.0933 49.7835C 32.1746 43.7229 37.4591 37.8788 41.3209 31.1688C 47.012 21.2121 51.2803 10.3896 56.1583 0C 57.5811 0.21645 58.8006 0.216447 60.2234 0.216447Z" transform="translate(182.256 0.865855)" fill="url(#paint9_linear)"/>
</g>
<g id="Vector_11">
<path d="M 93.2927 71.4632C 85.7723 65.1861 78.0488 59.1256 70.5284 52.632C 60.9756 44.6234 51.0163 38.1299 39.6341 33.1515C 33.3333 30.5541 28.252 25.1429 22.561 21.0303C 19.1057 18.6493 15.4472 17.1342 12.1951 14.5368C 7.92683 11.29 4.06503 7.6104 0.406498 3.93074C -0.203258 3.28139 0.203252 1.33334 0 0.0346344C 1.21951 0.0346344 2.8455 -0.181822 3.65851 0.467528C 12.6016 7.39394 21.3414 14.7533 30.691 21.2468C 38.4146 26.658 46.748 30.987 54.878 35.9654C 64.4309 41.5931 73.5772 47.8701 80.8943 56.961C 84.1463 61.0736 89.2276 63.671 93.2927 66.9177C 93.2927 68.6493 93.2927 69.9481 93.2927 71.4632Z" transform="translate(206.098 190.442)" fill="url(#paint10_linear)"/>
</g>
<g id="Vector_12">
<path d="M 0 0C 2.64228 1.08225 5.69106 1.51514 8.13008 3.03029C 19.5122 9.5238 32.1138 8.44156 44.1057 10.8225C 51.8293 12.3377 59.5528 13.4199 67.0732 15.1515C 70.5284 16.0173 73.7805 18.3983 77.0325 20.1299C 81.3008 22.2944 85.3658 24.4589 89.4309 27.0563C 91.2601 28.355 93.9024 30.9524 93.4959 32.4675C 92.6829 35.7143 89.6341 35.4978 87.1951 33.9827C 83.5366 31.6017 79.4715 29.4372 76.4228 26.4069C 71.9512 21.8615 66.6667 20.1299 60.9756 19.0476C 48.9837 16.8831 36.7886 15.5844 25 12.7705C 16.4634 10.8225 8.33333 7.14284 0 4.11254C 0 2.81384 0 1.51515 0 0Z" transform="translate(0.609741 101.732)" fill="url(#paint11_linear)"/>
</g>
<g id="Vector_13">
<path d="M 0.203252 0C 14.4309 11.2554 28.6585 22.2944 43.0894 33.5498C 44.7154 34.8485 46.5447 35.9307 48.374 36.5801C 66.6667 43.0736 78.252 58.8745 91.6667 72.0779C 92.8862 73.1602 92.6829 75.7576 93.0894 77.7056C 91.4634 77.0563 89.2276 76.8398 88.0081 75.7576C 83.5366 71.4286 79.2683 66.6667 75 62.1212C 66.2602 52.8139 56.0976 46.3203 45.5285 39.3939C 30.8943 29.8701 17.4797 18.1818 3.65853 7.35931C 2.43902 6.49351 1.21952 5.41126 3.10138e-06 4.329C 0.203255 2.81385 0.203252 1.51515 0.203252 0Z" transform="translate(0.406372 11.9048)" fill="url(#paint12_linear)"/>
</g>
<g id="Vector_14">
<path d="M 0.203252 0C 11.9919 7.79221 23.5772 15.5844 35.3659 23.1602C 38.4146 25.1082 42.0732 26.8398 45.5285 27.7056C 53.4553 29.4372 61.7886 29.2208 69.3089 31.8182C 76.4228 34.1991 83.1301 39.1775 89.6341 43.29C 90.4472 43.7229 90.2439 46.3204 90.4471 47.8355C 89.0244 47.8355 87.6016 47.8355 86.1789 47.8355C 85.7724 47.8355 85.5691 47.619 85.3658 47.4026C 73.9837 36.3636 59.5528 35.9307 45.7317 33.3333C 42.2764 32.684 38.6179 31.1688 35.3659 29.2208C 27.8455 24.4589 20.5285 19.4805 13.2114 14.2857C 8.73984 11.039 4.47155 7.57576 3.10138e-06 4.329C 0.203255 2.81385 0.203252 1.51515 0.203252 0Z" transform="translate(0.406372 71.4286)" fill="url(#paint13_linear)"/>
</g>
<g id="Vector_15">
<path d="M 0 28.5474C 11.9919 21.8374 23.9837 14.6946 36.3821 8.85041C 40.8537 6.68591 46.5447 6.46946 51.626 6.25301C 62.8049 6.03656 73.7805 4.9543 84.3496 0.1924C 85.5691 -0.2405 86.9919 0.1924 88.4146 0.1924C 88.0081 1.70755 88.2114 4.30497 87.3984 4.73787C 83.7398 6.68592 79.8781 8.20108 75.813 9.28334C 72.561 10.1491 69.1057 10.3656 65.8537 10.582C 61.1789 10.7985 56.5041 10.582 52.0325 11.2314C 46.9512 11.8807 41.6667 12.3136 36.9919 14.2617C 24.3902 19.8894 12.3984 26.5993 0 32.8764C 0 31.3612 0 30.0625 0 28.5474Z" transform="translate(0.609741 174.916)" fill="url(#paint14_linear)"/>
</g>
<g id="Vector_16">
<path d="M 80.691 4.54545C 68.0894 10.1732 55.2845 15.368 43.0894 21.645C 38.2114 24.026 34.3496 28.7879 30.2845 32.4675C 28.4553 34.1991 26.8293 36.3636 25 38.3117C 19.9187 43.723 14.6341 48.9177 9.55284 54.329C 8.73983 54.9784 8.33333 56.4935 7.52032 56.71C 5.08129 57.5758 2.43902 58.0087 0 58.658C 1.01626 56.2771 1.626 53.4632 3.25201 51.7316C 11.9918 42.6407 20.7317 33.7662 29.878 25.1082C 33.5366 21.645 38.2114 19.4805 42.6829 16.8831C 44.5122 15.8009 46.748 15.1515 48.7805 14.2857C 59.3496 9.52381 70.1219 4.7619 80.691 0C 80.691 1.7316 80.691 3.0303 80.691 4.54545Z" transform="translate(218.699 57.1429)" fill="url(#paint15_linear)"/>
</g>
<g id="Vector_17">
<path d="M 47.5087 0.4329C 41.4112 11.039 35.3136 21.645 29.6225 32.2511C 27.9965 35.0649 26.777 38.5281 26.5737 41.7749C 26.1672 47.619 23.7282 52.3809 20.8827 57.1428C 17.6307 62.3377 15.3949 68.1818 12.3461 73.5931C 10.3136 77.4892 8.28106 81.3853 5.63878 84.8485C 4.62252 86.1472 2.1835 86.1472 0.557478 86.5801C 0.354226 84.632 -0.458763 81.3853 0.354245 80.7359C 9.50059 73.5931 10.3136 60.8225 17.6307 52.3809C 20.2729 49.3506 21.086 44.3723 22.3055 40.0433C 24.7445 31.1688 27.9965 22.9437 34.2973 16.0173C 38.3624 11.6883 40.5982 5.41126 43.6469 6.60554e-06C 44.8665 0.432907 46.0859 0.4329 47.5087 0.4329Z" transform="translate(171.597 0.649323)" fill="url(#paint16_linear)"/>
</g>
<g id="Vector_18">
<path d="M 95.1219 4.11254C 90.0406 5.41124 84.9593 6.70995 79.878 8.00865C 76.0163 8.87445 72.3577 10.606 68.4959 10.606C 54.878 10.3896 41.2602 9.52378 27.439 9.30733C 20.3252 9.09088 13.4146 9.95669 6.30082 9.95669C 4.2683 9.95669 2.03252 9.09091 0 8.65801C 1.62602 6.92641 3.04878 4.11255 5.0813 3.67965C 14.4309 1.51514 23.7805 2.38093 32.9268 4.97833C 34.3496 5.41123 35.9756 6.06058 37.3984 6.06058C 55.0813 5.41123 72.9675 8.658 89.8374 0.865788C 91.2601 0.216437 93.0894 0.21645 94.7154 0C 95.1219 1.2987 95.1219 2.59739 95.1219 4.11254Z" transform="translate(204.268 135.498)" fill="url(#paint17_linear)"/>
</g>
<g id="Vector_19">
<path d="M 87.0322 4.11255C 83.3737 4.97835 79.7152 5.84416 76.0566 6.92641C 71.7883 8.22511 67.7233 10.8225 63.6582 11.039C 49.4306 11.6883 34.9997 14.5022 20.7721 10.3896C 17.3168 9.30735 13.2518 11.039 9.38997 11.2554C 6.54444 11.2554 3.69892 11.039 0.853392 10.6061C 0.446888 10.6061 -0.162886 7.57576 0.0403657 7.35931C 2.68264 6.06061 5.32492 4.54547 8.17045 4.32902C 13.2517 4.11257 18.3331 5.1948 23.2111 5.6277C 42.5201 7.14285 62.0322 9.09092 80.7314 1.08226C 82.7639 0.216463 84.9997 0.216463 87.2355 1.32111e-05C 87.0322 1.29871 87.0322 2.5974 87.0322 4.11255Z" transform="translate(212.358 147.403)" fill="url(#paint18_linear)"/>
</g>
<g id="Vector_20">
<path d="M 4.87805 0C 11.3821 8.65801 17.4797 17.7489 24.5935 25.974C 34.1463 37.013 44.5122 47.4026 54.6748 58.0087C 59.5528 62.987 65.0406 67.5325 69.9187 72.5108C 71.1382 73.8095 70.935 76.6234 71.5447 78.5714C 69.7155 77.7056 67.4797 77.4892 66.0569 76.1905C 58.3333 68.8311 50.6098 61.6883 43.4959 53.8961C 33.7398 43.0736 24.5935 31.8182 15.4471 20.5628C 9.95934 13.8528 5.0813 6.92641 -3.10138e-06 0C 1.42276 0 3.25203 0 4.87805 0Z" transform="translate(30.2844 1.08225)" fill="url(#paint19_linear)"/>
</g>
<g id="Vector_21">
<path d="M 84.7561 53.8961C 77.6423 51.0822 70.3252 48.7013 63.4146 45.2381C 53.252 40.0433 43.2927 34.1991 33.3333 28.355C 31.3008 27.2727 29.4716 25.5411 27.439 24.026C 20.5285 18.8312 13.4146 13.6363 6.50407 8.22509C 4.26829 6.49349 2.23578 4.32902 6.20276e-06 2.16452C 0.40651 1.51516 0.812996 0.649364 1.2195 1.32111e-05C 3.25202 0.649364 5.69106 1.08226 7.52033 2.16452C 11.1789 4.11257 14.6341 6.27707 18.0894 8.65802C 20.3252 10.1732 23.1707 11.4718 24.5935 13.6363C 29.2683 20.3463 35.5691 24.6753 42.4797 28.1385C 56.5041 35.0649 70.5285 42.2078 84.5528 49.3506C 84.7561 51.0822 84.7561 52.3809 84.7561 53.8961Z" transform="translate(214.634 183.117)" fill="url(#paint20_linear)"/>
</g>
<g id="Vector_22">
<path d="M 81.3008 73.8095C 74.3903 69.0476 67.0732 64.7186 60.3659 59.5238C 51.2195 52.5974 43.0894 44.3723 33.7399 38.3117C 20.7317 30.0866 12.1951 17.316 2.23579 5.84418C 1.21952 4.54548 0.609756 2.5974 0 1.08225C 0.406504 0.649351 0.609756 0.4329 1.01626 0C 2.43902 0.649351 3.86178 1.08225 4.87804 2.1645C 8.94308 6.49351 13.6179 10.3896 16.6667 15.368C 21.1382 22.5108 26.4228 27.9221 32.9268 32.9005C 48.9837 45.0217 65.0406 57.3593 81.0976 69.4805C 81.3008 70.9957 81.3008 72.2944 81.3008 73.8095Z" transform="translate(218.089 214.069)" fill="url(#paint21_linear)"/>
</g>
<g id="Vector_23">
<path d="M 4.06504 0.21645C 10.5691 13.2035 17.0732 26.1905 23.5772 39.1775C 24.7968 41.5584 25.2033 44.3723 26.4228 46.5368C 31.0976 55.8442 36.1789 64.7186 40.8537 74.026C 42.2764 76.6234 42.6829 79.8701 43.2927 82.9004C 43.2927 83.1169 40.8537 84.632 40.6504 84.4156C 38.8211 82.0346 36.9919 79.4372 35.5691 76.8398C 34.7561 75.5411 34.7561 73.5931 33.9431 72.2944C 22.7642 58.2251 20.3252 39.8268 11.7886 24.2424C 7.52033 16.4502 3.86179 8.00866 0 3.30277e-06C 1.42276 0.216454 2.64228 0.21645 4.06504 0.21645Z" transform="translate(74.7968 0.865852)" fill="url(#paint22_linear)"/>
</g>
<g id="Vector_24">
<path d="M 64.2276 0C 52.8455 24.026 36.1788 43.7229 18.2927 62.5541C 14.0244 66.8831 10.1626 71.8615 6.09755 76.1905C 4.87804 77.4892 3.04879 78.355 1.42278 79.4372C 1.01627 79.0043 0.406492 78.5714 -1.24055e-05 78.1385C 0.812996 76.4069 1.01626 74.2424 2.23577 72.9437C 13.6179 60.1731 24.7968 47.1861 36.9919 35.2814C 44.3089 28.1385 48.1707 18.8312 53.6585 10.3896C 55.8943 6.92641 57.7236 3.4632 59.9593 0C 61.5853 0 62.8049 0 64.2276 0Z" transform="translate(202.642 1.08225)" fill="url(#paint23_linear)"/>
</g>
<g id="Vector_25">
<path d="M 0 79.2208C 3.65854 65.5844 11.5854 54.7619 18.6992 43.29C 27.8455 28.355 37.8049 14.0693 50 1.94806C 51.0163 0.865808 52.8455 0.649337 54.2683 -1.32111e-05C 54.4715 1.73159 55.2845 4.11256 54.6748 5.19481C 52.2358 8.65802 49.3902 11.4719 46.5447 14.5022C 44.3089 16.8831 40.8537 18.1818 39.2276 20.7792C 29.065 36.1472 19.1057 51.7316 9.3496 67.5325C 7.11383 70.9957 5.89432 75.3247 4.2683 79.2208C 2.64229 79.2208 1.42276 79.2208 0 79.2208Z" transform="translate(60.5693 220.563)" fill="url(#paint24_linear)"/>
</g>
<g id="Vector_26">
<path d="M 0.203252 40.5508C 9.34959 32.1092 20.3252 27.7802 30.8943 22.1525C 41.2602 16.7413 52.2358 12.6287 61.1789 4.62003C 64.2276 1.80618 68.0894 -1.22411 73.374 0.507494C 72.9675 1.8062 72.9675 3.1049 72.3577 3.75425C 66.8699 8.2997 61.7886 13.7109 54.065 14.3603C 51.8293 14.5767 49.3902 16.0919 47.3577 17.3906C 39.6341 22.8019 31.9106 27.7802 22.7642 31.027C 14.6341 34.0573 7.52033 40.1179 3.10138e-06 44.8798C 0.203255 43.3646 0.203252 42.0659 0.203252 40.5508Z" transform="translate(0.406372 192.133)" fill="url(#paint25_linear)"/>
</g>
<g id="Vector_27">
<path d="M 0 9.95672C 4.26829 9.09092 8.9431 8.87449 12.8049 6.92643C 25.813 0.216476 39.6342 0.865807 53.4553 0.649357C 58.9431 0.432907 64.6341 0 70.1219 0C 71.748 0 73.5772 1.51515 75.2032 2.1645C 73.5772 3.24675 72.1545 5.19481 70.5285 5.41126C 64.4309 6.06061 58.3333 6.49353 52.2358 6.27708C 34.3496 5.84418 16.8699 8.87447 0 14.2857C 0 12.7706 0 11.4719 0 9.95672Z" transform="translate(0.609741 153.463)" fill="url(#paint26_linear)"/>
</g>
<g id="Vector_28">
<path d="M 0.203252 8.68206C 20.1219 3.48725 40.2439 1.32274 60.7724 1.97209C 65.4472 2.18854 70.1219 0.456948 74.7967 0.0240473C 76.2195 -0.192403 77.6423 1.1063 79.065 1.75566C 78.0488 3.05436 77.0325 5.00239 75.813 5.21884C 69.1057 6.30109 62.3984 7.1669 55.6911 7.5998C 45.7317 8.03271 35.7724 7.38335 25.813 8.0327C 20.935 8.24915 16.0569 10.4137 10.9756 11.2795C 7.31708 11.9288 3.65854 11.9288 3.10138e-06 12.1453C 0.203255 10.8466 0.203252 9.76431 0.203252 8.68206Z" transform="translate(0.406372 165.56)" fill="url(#paint27_linear)"/>
</g>
<g id="Vector_29">
<path d="M 71.1382 34.2863C 56.5041 26.4941 42.0732 18.269 27.439 10.6932C 24.5935 9.17805 20.935 9.61094 17.6829 8.74513C 12.6016 7.66288 7.52033 6.36418 2.64228 4.84902C 1.62602 4.41612 0.813008 2.68454 0 1.38584C 1.42276 0.952941 3.04879 -0.345773 4.2683 0.0871272C 17.4797 3.55033 30.8943 6.14775 42.8862 14.3729C 51.626 20.4335 61.5854 24.1131 70.9349 28.875C 71.1382 30.6066 71.1382 32.5547 71.1382 34.2863Z" transform="translate(228.252 177.835)" fill="url(#paint28_linear)"/>
</g>
<g id="Vector_30">
<path d="M 0 0C 14.4309 9.74026 28.8618 19.0476 43.0894 29.2208C 50.2032 34.1991 56.5041 40.4762 63.2114 46.3203C 64.4309 47.4026 65.2439 48.9177 66.4634 50.6493C 62.1951 53.0303 59.1463 50.8658 57.1138 48.2684C 41.4634 28.7879 19.3089 19.2641 0.203249 5.19481C -3.09944e-06 3.67966 0 1.7316 0 0Z" transform="translate(0.609741 43.29)" fill="url(#paint29_linear)"/>
</g>
<g id="Vector_31">
<path d="M 73.1933 7.79222C 64.6567 7.14287 56.1201 6.06061 47.5835 6.06061C 42.299 6.06061 36.8112 7.79221 31.5266 7.57576C 21.5673 6.92641 11.608 5.41128 1.6486 4.11257C 1.03885 4.11257 -0.180671 2.16452 0.0225809 1.94807C 0.632337 1.08227 1.64859 0 2.4616 0C 4.90062 0 7.54289 0.64937 9.98192 0.865821C 17.5022 1.51517 25.2258 3.24675 32.5429 2.1645C 46.364 0.21645 59.7787 0.865807 72.99 4.97836C 73.1933 5.62771 73.1933 6.70997 73.1933 7.79222Z" transform="translate(226.197 165.368)" fill="url(#paint30_linear)"/>
</g>
<g id="Vector_32">
<path d="M 0 74.6753C 1.82927 63.6364 4.06503 52.5974 5.4878 41.342C 6.09755 35.7143 5.08129 30.0866 4.87804 24.2424C 4.67478 17.316 4.67478 10.1732 4.87804 3.24675C 4.87804 2.1645 6.70732 1.08225 7.72358 0C 8.53659 1.2987 9.95934 2.38095 9.95934 3.67965C 10.1626 16.6667 10.3658 29.6537 9.95934 42.4243C 9.75609 46.3204 7.11381 50.2164 6.50406 54.1126C 5.69105 60.8225 5.4878 67.7489 5.0813 74.4589C 3.45528 74.6753 1.62602 74.6753 0 74.6753Z" transform="translate(128.659 225.108)" fill="url(#paint31_linear)"/>
</g>
<g id="Vector_33">
<path d="M 0 4.03328C 3.04878 3.81683 6.09756 3.16748 8.94309 3.60038C 16.4634 4.46618 23.7805 4.46618 31.3008 1.43588C 36.5854 -0.728622 43.2927 0.137178 49.187 0.353629C 54.6748 0.570079 60.3659 1.65232 65.6504 2.95102C 67.2764 3.38392 68.4959 5.76488 69.7155 7.28003C 67.8862 7.49648 66.0569 8.14584 64.2277 7.92939C 54.2683 7.28004 44.1057 4.46619 34.7561 6.41424C 22.9675 9.01164 11.5854 7.28003 0 7.28003C 0 6.19778 0 5.11553 0 4.03328Z" transform="translate(0.609741 126.919)" fill="url(#paint32_linear)"/>
</g>
<g id="Vector_34">
<path d="M 4.87804 73.5931C 5.69104 63.6364 3.25201 54.1126 1.62599 44.3723C -0.609781 30.9524 0.203252 16.8831 0 3.24675C 0 2.1645 1.82924 1.08225 2.64225 0C 3.45526 1.08225 5.08129 2.38097 4.87804 3.46322C 1.626 22.9437 6.09755 41.7749 8.53658 60.6061C 9.14633 64.9351 8.73981 69.2641 8.73981 73.5931C 7.5203 73.5931 6.3008 73.5931 4.87804 73.5931Z" transform="translate(146.138 226.19)" fill="url(#paint33_linear)"/>
</g>
<g id="Vector_35">
<path d="M 3.86178 0C 5.28454 21.2121 6.7073 42.2078 7.92682 63.4199C 7.92682 64.0693 8.33333 64.9351 8.13008 65.5844C 7.52032 67.0996 6.70732 68.3983 6.09756 69.9134C 5.0813 68.6147 3.45527 67.5325 3.25201 66.2338C 2.64226 62.987 2.43902 59.5238 2.43902 56.0606C 2.03251 43.9394 1.626 31.6017 1.21949 19.4805C 1.01624 12.987 0.406504 6.4935 0 0.216447C 1.21951 -3.30806e-06 2.43901 0 3.86178 0Z" transform="translate(130.894 1.08225)" fill="url(#paint34_linear)"/>
</g>
<g id="Vector_36">
<path d="M 0.203252 46.4056C 4.6748 42.7259 9.34959 39.4792 13.4146 35.5831C 20.3252 29.306 26.8293 22.3796 33.5366 16.1026C 39.4309 10.6913 45.5285 5.71297 51.626 0.518162C 52.439 -0.131189 54.065 -0.131202 55.6911 0.301698C 38.0081 18.2671 20.5285 36.2324 3.10138e-06 50.5181C 0.203255 49.2194 0.203252 47.9208 0.203252 46.4056Z" transform="translate(0.406372 214.417)" fill="url(#paint35_linear)"/>
</g>
<g id="Vector_37">
<path d="M 0 0.216463C 4.06504 0.432914 8.13008 0.649357 12.1951 0.649357C 18.9024 0.649357 25.6098 0.432914 32.3171 0.216463C 41.6667 1.32024e-05 51.2195 0 60.5691 0C 62.1951 0 63.8211 1.29872 65.4471 1.94807C 65.4471 2.59742 65.4471 3.24678 65.4471 3.67968C 63.6179 4.11258 61.7886 4.97836 59.9594 4.97836C 48.5772 5.19481 36.9919 5.62771 25.6098 5.41126C 17.0732 5.19481 8.53658 3.89612 0 3.03032C 0 2.38097 0 1.29871 0 0.216463Z" transform="translate(0.609741 141.558)" fill="url(#paint36_linear)"/>
</g>
<g id="Vector_38">
<path d="M 60.9756 4.329C 47.7642 9.95671 34.3496 15.5844 21.1382 21.4286C 15.6504 23.8095 10.1626 26.1905 4.87804 28.355C 3.65852 28.7879 2.23576 29.0043 0.812996 29.4372C 0.609744 29.0043 0.203252 28.5714 0 28.1385C 1.21951 26.6234 2.03251 24.6753 3.45528 23.8095C 8.13008 21.4286 12.8049 19.2641 17.6829 17.316C 26.4228 13.8528 35.3659 10.8225 44.3089 7.35929C 50 5.19479 55.4878 2.5974 61.1789 0C 60.9756 1.51515 60.9756 2.81385 60.9756 4.329Z" transform="translate(238.415 82.2511)" fill="url(#paint37_linear)"/>
</g>
<g id="Vector_39">
<path d="M 4.2683 67.7489C 3.25204 56.0606 2.03253 44.5887 1.21952 32.9004C 0.609769 23.8095 0.203252 14.5022 0 5.41126C 0 3.67965 1.21951 1.7316 2.03252 0C 3.04878 1.7316 5.0813 3.4632 5.0813 5.41126C 5.4878 12.7706 4.87807 20.1299 5.48783 27.4892C 6.30084 40.9091 7.52035 54.329 8.53661 67.7489C 6.91059 67.7489 5.69107 67.7489 4.2683 67.7489Z" transform="translate(157.927 232.035)" fill="url(#paint38_linear)"/>
</g>
<g id="Vector_40">
<path d="M 3.86179 0C 5.69106 20.7792 7.52034 41.5584 9.14635 62.1212C 9.34961 63.8528 7.92682 65.8009 7.31707 67.5325C 6.30081 65.8009 4.26829 64.0693 4.26829 62.3377C 2.64227 41.5584 1.42278 20.7792 1.24055e-05 0C 1.21952 0 2.43902 0 3.86179 0Z" transform="translate(142.073 1.08225)" fill="url(#paint39_linear)"/>
</g>
<g id="Vector_41">
<path d="M 0 56.4935C 10.9756 38.7446 21.748 20.9957 32.7236 3.4632C 33.5366 1.94805 35.3659 1.08224 36.7886 -1.32111e-05C 37.1951 0.216437 37.6016 0.432894 38.0081 0.649344C 37.8049 2.38095 38.0081 4.54547 37.1951 5.84417C 33.3333 11.6883 28.8618 17.0996 25.2032 22.9437C 18.2927 33.9827 11.7886 45.2381 5.0813 56.4935C 3.45528 56.4935 1.62602 56.4935 0 56.4935Z" transform="translate(71.748 243.29)" fill="url(#paint40_linear)"/>
</g>
<g id="Vector_42">
<path d="M 58.7398 4.11255C 50 8.00866 41.2602 11.6883 32.7236 15.8009C 29.6748 17.0996 26.2195 18.3983 23.7805 20.7792C 18.0894 26.1905 10.9756 25.974 4.26829 26.8398C 3.04877 27.0563 1.62603 26.1905 1.24055e-05 24.6753C 20.7317 18.8312 39.4309 8.65802 58.7398 1.32111e-05C 58.7398 1.29871 58.7398 2.5974 58.7398 4.11255Z" transform="translate(240.65 107.359)" fill="url(#paint41_linear)"/>
</g>
<g id="Vector_43">
<path d="M 4.06504 0C 4.47154 4.7619 4.87804 9.74025 5.4878 14.5022C 6.09755 19.697 7.11381 24.6753 7.92682 29.8701C 8.13007 31.6017 8.53659 33.3333 8.73984 35.0649C 9.14635 40.4762 9.95934 45.671 9.95934 51.0822C 9.95934 54.7619 9.34958 58.4415 8.94308 63.2034C 5.48779 59.9567 0.406504 18.3983 0 0C 1.42276 0 2.64228 0 4.06504 0Z" transform="translate(153.049 1.08225)" fill="url(#paint42_linear)"/>
</g>
<g id="Vector_44">
<path d="M 6.93714 56.2771C 2.46559 42.8571 3.2786 28.7879 1.85584 14.9351C 1.44933 11.4718 0.433083 8.00866 0.0265793 4.329C -0.176673 3.0303 0.839569 1.51515 1.24607 0C 2.46559 0.865801 4.29485 1.29871 4.70135 2.38097C 5.71761 4.97837 6.73387 7.79219 6.73387 10.606C 7.14038 19.697 6.73389 29.0043 7.5469 38.0952C 8.15665 44.1559 10.3924 50.2164 12.0184 56.2771C 10.3924 56.2771 8.56315 56.2771 6.93714 56.2771Z" transform="translate(180.665 243.506)" fill="url(#paint43_linear)"/>
</g>
<g id="Vector_45">
<path d="M 54.0651 5.41125C 40.2439 11.4719 26.4228 17.5325 12.6017 23.5931C 8.94311 25.1082 4.87806 26.1905 1.21952 27.4892C 0.813021 26.6234 0.406504 25.7576 0 24.8918C 2.03252 23.5931 3.86179 21.645 6.09756 20.7792C 17.6829 15.8009 29.4716 11.2554 41.0569 6.49351C 45.5285 4.54545 49.7968 2.1645 54.2683 0C 54.0651 1.7316 54.0651 3.67965 54.0651 5.41125Z" transform="translate(245.325 94.1558)" fill="url(#paint44_linear)"/>
</g>
<g id="Vector_46">
<path d="M 4.87805 0C 10.1626 10.6061 15.4472 20.9957 20.7317 31.6017C 23.374 37.013 25.6098 42.4242 27.8455 48.0519C 28.252 49.1342 27.0325 51.0823 26.626 52.5974C 25.4065 51.7316 23.9838 51.0822 23.374 50C 15.4472 33.3333 7.72359 16.6667 1.24055e-05 0C 1.42278 0 3.25203 0 4.87805 0Z" transform="translate(87.1951 1.08225)" fill="url(#paint45_linear)"/>
</g>
<g id="Vector_47">
<path d="M 0 22.5751C 12.6016 16.0816 25 9.58805 37.6016 3.09454C 41.2602 1.14649 44.9187 -1.88381 50 1.5794C 33.3333 10.6703 16.6667 19.9777 0 29.0686C 0 26.9041 0 24.7396 0 22.5751Z" transform="translate(0.609741 193.875)" fill="url(#paint46_linear)"/>
</g>
<g id="Vector_48">
<path d="M 50.813 30.7359C 37.6016 23.8095 24.3903 17.0996 11.3821 10.1732C 8.5366 8.658 5.69106 6.92639 3.04878 5.19479C 1.82927 4.32899 1.01626 2.81386 0 1.73161C 0.406504 1.08226 0.609756 0.649351 1.01626 0C 3.45528 1.08225 6.09757 1.94805 8.33335 3.24675C 22.561 10.6061 36.5854 17.9654 50.813 25.5411C 50.813 27.0563 50.813 29.0043 50.813 30.7359Z" transform="translate(248.577 194.372)" fill="url(#paint47_linear)"/>
</g>
<g id="Vector_49">
<path d="M 52.2358 41.9913C 40.4472 32.9004 28.8618 23.8095 17.0732 14.9351C 13.6179 12.3376 10.1626 9.95668 6.70732 7.14283C 4.47155 5.41123 2.23577 3.24675 0 1.51514C 0.203252 1.08224 0.609744 0.4329 0.812996 0C 2.03251 0.4329 3.25201 0.4329 4.26827 1.08225C 15.4471 9.74026 26.626 18.3983 37.8049 26.8398C 42.4797 30.5195 47.3577 33.9827 52.2358 37.6623C 52.2358 39.1775 52.2358 40.4762 52.2358 41.9913Z" transform="translate(247.154 232.9)" fill="url(#paint48_linear)"/>
</g>
<g id="Vector_50">
<path d="M 4.2683 0C 11.1789 14.2857 18.0895 28.355 24.7968 42.6407C 26.0163 45.2381 27.0325 48.0519 28.252 50.6494C 27.8455 51.0823 27.439 51.5152 27.0325 51.7316C 25.6098 50.6494 23.5773 49.7836 22.7642 48.2684C 20.122 43.2901 17.8862 38.0952 15.4472 33.1169C 11.3821 24.8918 7.31708 16.6667 3.25204 8.44156C 2.03253 5.84416 1.01626 2.81385 0 0C 1.62602 0 2.84554 0 4.2683 0Z" transform="translate(62.3983 1.08225)" fill="url(#paint49_linear)"/>
</g>
<g id="Vector_51">
<path d="M 3.68512 51.948C 2.4656 37.013 1.04283 22.2944 0.0265727 7.35929C -0.176679 4.97834 0.839593 2.38095 1.2461 0C 2.46561 2.1645 4.49812 4.32902 4.70138 6.70997C 6.12414 19.4805 6.93716 32.0346 7.95342 44.8052C 8.15667 47.1861 7.75015 49.3506 7.75015 51.7316C 6.32739 51.948 5.10788 51.948 3.68512 51.948Z" transform="translate(169.689 247.835)" fill="url(#paint50_linear)"/>
</g>
<g id="Vector_52">
<path d="M 3.54561 0C 3.95212 10.3896 4.35861 20.7792 4.96837 31.3853C 5.17162 35.9307 6.18788 40.2597 6.39113 44.8052C 6.39113 46.3203 5.57813 47.8355 4.96837 49.5671C 3.74886 48.4848 1.91961 47.6191 1.71636 46.3204C 0.903349 40.9091 0.496838 35.2814 0.0903342 29.8701C -0.112918 25.7576 0.0903342 21.645 0.0903342 17.5325C 0.0903342 11.9048 0.293568 6.0606 0.293568 0.432894C 1.51308 -6.61612e-06 2.52935 0 3.54561 0Z" transform="translate(120.032 1.08225)" fill="url(#paint51_linear)"/>
</g>
<g id="Vector_53">
<path d="M 13.7299 0C 12.3071 14.5022 9.66484 28.5714 4.99005 42.4242C 4.17704 44.8052 1.94127 46.5368 0.51851 48.4849C 0.51851 45.8875 -0.497762 42.8571 0.315246 40.6926C 5.39655 27.7056 7.83558 14.0693 9.66485 0C 11.0876 0 12.3071 0 13.7299 0Z" transform="translate(180.986 1.08225)" fill="url(#paint52_linear)"/>
</g>
<g id="Vector_54">
<path d="M 23.3738 39.1775C 16.8697 29.8701 10.5689 20.5628 3.86154 11.4719C 1.42252 8.00865 -1.21974 4.97834 0.609531 -1.32111e-05C 11.5851 11.9047 18.9022 26.4069 28.4551 39.394C 26.829 39.1775 24.9998 39.1775 23.3738 39.1775Z" transform="translate(194.716 260.606)" fill="url(#paint53_linear)"/>
</g>
<g id="Vector_55">
<path d="M 0 45.0216C 1.01626 42.8571 2.03251 40.4762 3.45528 38.3117C 8.73983 30.0866 12.8049 21.4286 12.6016 10.8225C 12.6016 7.14285 15.0407 3.4632 16.4634 -6.60554e-06C 17.2764 0.216444 18.0894 0.4329 18.9024 0.649351C 18.9024 2.81385 19.1057 4.97834 18.9024 6.92639C 18.0894 12.1212 17.2764 17.5325 15.6504 22.7273C 14.2276 27.4892 11.5854 32.0346 9.55284 36.5801C 8.33333 39.394 6.70731 42.2078 5.4878 45.0216C 3.45528 45.0216 1.62602 45.0216 0 45.0216Z" transform="translate(97.1545 254.762)" fill="url(#paint54_linear)"/>
</g>
<g id="Vector_56">
<path d="M 14.4309 0C 13.4146 16.0173 7.72357 30.7359 2.64227 45.4546C 1.82926 45.2381 0.812996 45.0217 -1.24055e-05 45.0217C 0.406492 41.5585 -0.406504 37.4459 1.21951 34.632C 7.11382 23.8095 8.13009 11.9048 10.5691 0.216447C 11.7886 -3.30599e-06 13.0081 0 14.4309 0Z" transform="translate(169.106 1.08225)" fill="url(#paint55_linear)"/>
</g>
<g id="Vector_57">
<path d="M 0.360066 45.671C -1.26595 31.3853 3.00234 17.9654 5.44137 4.32899C 5.64462 2.81384 6.86413 1.51514 7.47389 -1.32111e-05C 8.28689 0.216437 8.89666 0.432914 9.70967 0.432914C 9.30317 4.54547 8.89664 8.87444 8.28688 12.987C 7.06737 23.8095 5.64462 34.632 4.42511 45.4545C 3.00234 45.671 1.78283 45.671 0.360066 45.671Z" transform="translate(118.136 254.113)" fill="url(#paint56_linear)"/>
</g>
<g id="Vector_58">
<path d="M 37.3984 4.11255C 29.6748 11.4719 21.748 18.8312 14.0244 26.1905C 10.1626 29.8701 5.89431 33.1169 1.82927 36.5801C 1.21951 35.7143 0.609769 34.8485 1.24055e-05 34.1991C 12.1951 22.5108 23.5772 9.52381 37.6016 -3.30277e-06C 37.3984 1.2987 37.3984 2.5974 37.3984 4.11255Z" transform="translate(261.992 29.4372)" fill="black"/>
</g>
<g id="Vector_59">
<path d="M 25 0C 18.4959 12.7706 12.1951 25.5411 5.48779 38.0952C 4.67478 39.6104 2.84553 40.2597 1.62602 41.5584C 1.01626 41.1255 0.60975 40.6926 -6.20276e-06 40.4762C 1.62601 37.4459 3.04878 34.1991 4.6748 31.1688C 9.95935 20.7792 15.4472 10.6061 20.935 0.216447C 22.3577 -3.30599e-06 23.5772 0 25 0Z" transform="translate(205.285 1.08225)" fill="url(#paint57_linear)"/>
</g>
<g id="Vector_60">
<path d="M 40.4471 4.329C 27.2358 9.95671 13.8211 15.8009 1.24055e-05 21.645C 1.42278 16.2338 25.6098 3.8961 40.4471 0C 40.4471 1.51515 40.4471 2.81385 40.4471 4.329Z" transform="translate(258.943 70.3463)" fill="url(#paint58_linear)"/>
</g>
<g id="Vector_61">
<path d="M 33.7398 19.9134C 23.1707 14.7186 12.6016 9.74024 2.23578 4.54544C 1.21952 4.11253 0.609756 2.5974 0 1.51515C 1.21951 1.08224 2.64229 0 3.86181 0C 5.28457 0 6.91057 0.649344 8.13008 1.51515C 15.8537 8.2251 24.5935 12.3377 33.9431 15.5844C 33.7399 17.0996 33.7398 18.3983 33.7398 19.9134Z" transform="translate(265.65 178.139)" fill="url(#paint59_linear)"/>
</g>
<g id="Vector_62">
<path d="M 29.065 5.41126C 19.9187 9.30736 10.5691 12.987 0.813027 14.2857C 0.609775 13.6364 0.406504 12.7706 0 12.1212C 9.7561 8.00867 19.3089 3.8961 29.065 0C 29.065 1.7316 29.065 3.67965 29.065 5.41126Z" transform="translate(270.325 120.13)" fill="url(#paint60_linear)"/>
</g>
<g id="Vector_63">
<path d="M 0 22.2944C 7.92683 14.9351 15.6504 7.3593 23.5772 -6.60554e-06C 24.187 0.649344 24.5935 1.08225 25.2033 1.7316C 16.8699 10.8225 8.33333 19.697 0 28.7879C 0 26.6234 0 24.4589 0 22.2944Z" transform="translate(0.609741 267.749)" fill="white"/>
</g>
<g id="Vector_64">
<path d="M 0.203252 15.1515C 6.91057 9.52381 13.4146 3.67965 21.1382 0C 21.5447 0.865801 22.1545 1.51516 22.561 2.38097C 15.0407 8.22512 7.52033 13.8528 3.10138e-06 19.697C 0.203255 17.9654 0.203252 16.6667 0.203252 15.1515Z" transform="translate(0.406372 231.602)" fill="white"/>
</g>
<g id="Vector_65">
<path d="M 6.91833 0C 5.49556 7.35931 4.07279 14.7186 2.65002 22.2944C 2.04027 22.0779 1.22726 22.0779 0.617503 21.8615C -0.805261 14.2857 0.211012 6.9264 3.86955 0.216447C 4.88581 -3.30806e-06 5.90207 0 6.91833 0Z" transform="translate(165.44 1.08225)" fill="url(#paint61_linear)"/>
</g>
<g id="Vector_66">
<path d="M 15.4472 0C 10.9756 8.00866 6.30082 16.0173 1.82927 23.8095C 1.21952 23.3766 0.609744 23.1602 -1.24055e-05 22.7273C 2.03251 14.2857 7.52032 7.35931 11.3821 0C 12.8049 0 14.0244 0 15.4472 0Z" transform="translate(239.228 1.08225)" fill="white"/>
</g>
<g id="Vector_67">
<path d="M 16.6667 0C 11.7886 6.70996 6.91056 13.2035 1.82926 19.9134C 1.21951 19.4805 0.609762 18.8312 6.20276e-06 18.3983C 3.86179 12.3377 7.72358 6.06061 11.5854 0C 13.2114 0 15.0406 0 16.6667 0Z" transform="translate(263.415 1.08225)" fill="white"/>
</g>
<g id="Vector_68">
<path d="M 10.9756 19.0476C 7.31707 12.987 3.65855 6.92642 1.24055e-05 0.865814C 0.406516 0.649364 0.81302 0.216444 1.01627 -6.60554e-06C 7.92684 4.54545 10.7723 12.987 15.8536 19.0476C 14.4309 19.0476 12.6016 19.0476 10.9756 19.0476Z" transform="translate(256.911 280.736)" fill="white"/>
</g>
<g id="Vector_69">
<path d="M 6.09756 0C 9.55284 4.11255 13.2114 8.44156 16.6667 12.5541C 16.2602 12.987 15.8537 13.6364 15.4471 14.0693C 10.3658 9.30736 5.0813 4.7619 0 0C 2.03252 0 4.06504 0 6.09756 0Z" transform="translate(14.8375 1.08225)" fill="white"/>
</g>
<g id="Vector_70">
<path d="M 11.1789 13.4199C 7.52033 9.30736 3.65854 5.19479 0 1.29869C 0.406504 0.865788 0.813021 0.432907 1.21952 6.60554e-06C 5.69107 3.46321 9.95936 6.92642 14.4309 10.3896C 14.6342 12.7706 13.6179 13.8528 11.1789 13.4199Z" transform="translate(285.163 286.364)" fill="white"/>
</g>
<g id="Vector_71">
<path d="M 11.3821 5.62771C 7.92683 7.57576 4.6748 9.52381 1.21951 11.2554C 0.813008 10.6061 0.406492 9.95671 -1.24055e-05 9.09091C 3.86178 6.0606 7.72359 3.03031 11.5854 3.30277e-06C 11.3821 1.94806 11.3821 3.8961 11.3821 5.62771Z" transform="translate(288.008 43.0736)" fill="white"/>
</g>
<g id="Vector_72">
<path d="M 7.31707 0C 5.69106 3.24675 3.86179 6.70995 2.23577 9.95671C 1.42276 9.52381 0.812996 9.09091 -1.24055e-05 8.87446C 1.01625 5.84415 2.23577 3.0303 3.25203 0C 4.6748 0 5.89431 0 7.31707 0Z" transform="translate(199.593 1.08225)" fill="black"/>
</g>
<g id="Vector_73">
<path d="M 1.34216 11.5152C 0.122651 8.2684 0.703942 9.09092 0.0941861 5.62772C -0.312318 3.89612 0.703942 1.94805 1.11045 0C 2.93971 0.649351 6.19173 1.08225 6.39498 2.1645C 7.61449 8.22511 8.22426 14.5022 8.63077 20.5628C 8.63077 21.4286 6.8015 23.3766 6.19175 23.3766C 4.97224 23.1602 3.54946 21.8615 2.9397 20.7792C 2.32995 19.4805 2.5332 17.5325 2.5332 16.0173C 2.73646 15.8009 1.13891 11.5152 1.34216 11.5152Z" transform="translate(153.158 198.485)" fill="#5A69A9"/>
</g>
<g id="Vector_74">
<path d="M 16.8699 10.3896C 11.3821 8.44157 6.3008 6.70996 1.42275 4.7619C 0.609744 4.54545 -6.20276e-06 2.81385 -6.20276e-06 1.94805C -6.20276e-06 1.29869 1.42276 6.60554e-06 2.03251 6.60554e-06C 8.13008 1.51516 14.2276 3.24677 20.3252 4.97837C 20.935 5.19482 21.5447 7.79221 21.1382 8.00866C 19.9187 9.09091 18.2927 9.74027 16.8699 10.3896Z" transform="translate(74.187 141.342)" fill="#9EA5D3"/>
</g>
<g id="Vector_75">
<path d="M 15.6504 9.75759C 14.0244 10.8398 12.3984 12.5714 11.3821 12.355C 7.72358 11.0563 3.8618 9.32468 0.81302 6.94373C -0.406492 6.07793 0.203246 2.61471 -6.20276e-06 0.23376C 2.03251 0.23376 4.2683 -0.415578 5.89432 0.450223C 8.73985 1.96537 11.1788 4.12987 13.6179 6.29437C 14.2276 6.94372 14.6341 8.02599 15.6504 9.75759Z" transform="translate(123.984 145.221)" fill="#3C456D"/>
</g>
<g id="Vector_76">
<path d="M 12 8.87444C 10.5772 9.9567 8.74793 12.5541 6.51216 13.2034C 3.46338 14.0692 -0.195152 10.1732 0.00810032 6.49351C 0.211352 2.38096 2.65039 6.60554e-06 6.30893 6.60554e-06C 10.1707 0.216457 11.3902 3.67964 12 8.87444Z" transform="translate(158.528 164.069)" fill="#3C456D"/>
</g>
<g id="Vector_77">
<path d="M 8.25742 13.5167C 4.19238 12.4344 1.34685 9.18768 0.127342 4.64222C -0.685666 1.61192 2.56635 -1.20192 5.00538 0.52968C 7.85091 2.69418 10.4932 5.72449 12.5257 8.7548C 14.1517 11.7851 12.1192 13.9496 8.25742 13.5167Z" transform="translate(190.727 170.033)" fill="#5A69A9"/>
</g>
<g id="Vector_78">
<path d="M 10.7915 0.00606579C 11.4013 0.438966 13.0273 1.30478 13.2305 2.38703C 13.637 3.90218 13.2305 6.28313 12.4175 7.14893C 9.97849 9.31343 6.92971 11.2615 3.88093 12.5602C 1.23866 13.6424 -0.184097 11.4779 0.0191554 8.66407C 0.425659 5.41732 6.52323 -0.210384 10.7915 0.00606579Z" transform="translate(184.127 135.275)" fill="#5A69A9"/>
</g>
<g id="Vector_79">
<path d="M 10.1975 4.97836C 9.58777 10.6061 8.165 14.2857 4.09996 14.7186C 2.88045 14.9351 -0.371584 11.6883 0.0349205 10.8225C 1.25443 7.14286 3.49022 3.67965 5.31949 0C 7.14875 1.94805 8.97801 3.67966 10.1975 4.97836Z" transform="translate(147.323 98.2684)" fill="#5A69A9"/>
</g>
<g id="Vector_80">
<path d="M 6.35487 11.4718C 6.15162 13.8528 6.15161 16.2338 5.74511 18.3983C 5.54185 19.4805 3.91585 20.7792 2.89959 20.7792C 2.08658 20.7792 0.663806 19.0476 0.663806 17.9654C 0.257302 13.4199 -0.149177 8.65801 0.0540747 4.11255C 0.0540747 2.81385 1.68008 1.51515 2.49309 -3.30277e-06C 3.7126 1.08225 5.3386 2.1645 5.74511 3.4632C 6.35486 6.0606 6.15162 8.87445 6.35487 11.4718Z" transform="translate(157.263 71.645)" fill="#5A69A9"/>
</g>
<g id="Vector_81">
<path d="M 5.25387 0C 7.89614 3.8961 10.7417 6.27705 11.3514 9.0909C 11.9612 11.6883 9.92866 14.7186 6.27013 14.2857C 2.81484 13.8528 -0.843692 9.74026 0.172568 6.49351C 0.782324 4.329 2.81484 3.0303 5.25387 0Z" transform="translate(128.08 107.143)" fill="#D6D6D6"/>
</g>
<g id="Vector_82">
<path d="M -6.20276e-06 13.4199C 1.21951 9.5238 2.03251 5.84414 3.45527 2.59739C 3.86178 1.51514 5.69107 0.865794 6.91058 -6.60554e-06C 7.52034 1.29869 8.73984 2.5974 8.73984 3.8961C 8.33333 7.57576 7.72356 11.2554 6.50405 14.7186C 5.8943 16.2338 4.06504 17.0996 2.64228 18.3983C 1.62602 16.8831 0.813002 15.1515 -6.20276e-06 13.4199Z" transform="translate(116.87 229.87)" fill="#9EA5D3"/>
</g>
<g id="Vector_83">
<path d="M 8.73984 0.277056C 9.55285 0.277056 11.7886 0.277063 13.4146 0.926413C 14.6342 1.57576 15.8537 3.52382 15.8537 4.82252C 15.8537 5.68832 14.0244 7.4199 12.8049 7.63635C 9.95936 8.06925 6.91058 8.28572 4.2683 7.41992C 2.64229 6.98702 1.42276 4.3896 0 2.87445C 1.62602 2.00865 3.25202 0.926394 4.87804 0.0605928C 5.69104 -0.155857 6.50407 0.277056 8.73984 0.277056Z" transform="translate(100.203 137.169)" fill="#D6D6D6"/>
</g>
<g id="Vector_84">
<path d="M 16.3896 1.55927C 15.5765 3.07442 15.3733 4.15666 14.7635 4.58956C 11.105 6.75406 7.64972 9.135 3.78793 10.8666C 2.97492 11.2995 0.942398 10.2173 0.12939 9.13503C -0.277114 8.48568 0.332642 6.10471 1.14565 5.67181C 4.60093 3.50731 8.25948 1.55926 11.918 0.260558C 12.9343 -0.605242 14.7635 0.909922 16.3896 1.55927Z" transform="translate(222.025 119.869)" fill="#7C88CC"/>
</g>
<g id="Vector_85">
<path d="M 5.70131 -6.60554e-06C 8.34358 3.24675 11.3924 5.41127 11.1891 7.35932C 11.1891 9.30737 7.93709 12.5541 5.90457 12.987C 2.65254 13.6364 -0.192977 10.8225 0.0102751 7.14286C 0.416779 5.19481 3.26228 3.24675 5.70131 -6.60554e-06Z" transform="translate(192.876 149.784)" fill="#5A69A9"/>
</g>
<g id="Vector_86">
<path d="M 2.66614 0C 7.13768 0 11.6092 5.19481 10.9995 8.65801C 10.7962 10.1732 8.7637 12.3376 7.34094 12.5541C 4.49541 12.987 -0.382618 7.14284 0.0238861 4.11254C 0.227138 2.16449 2.05638 0.649351 2.66614 0Z" transform="translate(175.586 176.623)" fill="#5A69A9"/>
</g>
<g id="Vector_87">
<path d="M 12.0507 3.92056C 8.59544 7.81667 6.15643 10.6305 3.71741 13.4444C 2.4979 11.7128 0.465371 10.1976 0.0588672 8.46603C -0.550889 5.00283 3.71739 -0.408446 6.35966 0.0244547C 8.18893 0.240905 9.40845 1.97251 12.0507 3.92056Z" transform="translate(122.096 208.201)" fill="#5A69A9"/>
</g>
<g id="Vector_88">
<path d="M 5.32125 -6.60554e-06C 7.76028 3.8961 9.99605 6.06061 10.8091 8.87447C 11.0123 9.95672 8.16676 11.9048 6.54075 13.6364C 4.30498 11.039 1.86596 8.658 0.0366894 5.84414C -0.369815 5.41124 2.67898 2.81385 5.32125 -6.60554e-06Z" transform="translate(118.866 122.727)" fill="#9095AF"/>
</g>
<g id="Vector_89">
<path d="M 9.45292 9.97176C 3.35536 9.75531 -0.70966 6.72501 0.103348 3.47825C 0.509852 1.9631 3.35537 -0.201381 3.96512 0.0150689C 7.21716 1.96312 10.0627 4.56052 12.9082 6.94147C 11.4854 8.24017 10.0627 9.53886 9.45292 9.97176Z" transform="translate(98.2706 119.249)" fill="#5A69A9"/>
</g>
<g id="Vector_90">
<path d="M 6.30081 -6.60554e-06C 8.73984 2.38095 11.7886 3.8961 12.1951 6.06061C 13.0081 9.52381 9.7561 10.8225 6.91057 10.8225C 3.45529 10.8225 -1.24055e-05 9.52382 -1.24055e-05 5.62771C -1.24055e-05 3.89611 3.65854 2.38095 6.30081 -6.60554e-06Z" transform="translate(105.081 150.866)" fill="#5A69A9"/>
</g>
<g id="Vector_91">
<path d="M 5.3855 0C 7.82452 3.0303 10.67 5.41124 10.2635 6.27704C 9.04402 8.87445 7.01153 11.9047 4.5725 13.2034C 1.72698 14.5021 -0.508821 11.2554 0.100935 8.65801C 0.507439 5.84416 2.94648 3.67965 5.3855 0Z" transform="translate(172.054 124.026)" fill="#5A69A9"/>
</g>
<g id="Vector_92">
<path d="M 5.09232 0C 7.7346 3.4632 9.97034 5.6277 10.7834 8.00865C 10.9866 8.87445 8.1411 12.1212 6.51508 12.3377C 3.0598 12.7706 0.0110217 10.8225 0.0110217 6.70997C -0.19223 4.97837 2.45005 3.24675 5.09232 0Z" transform="translate(148.16 147.186)" fill="#5A69A9"/>
</g>
<g id="Vector_93">
<path d="M 12.6581 3.25331C 8.79626 6.93296 6.35724 9.53036 3.51171 11.9113C 3.30846 12.1278 0.462937 9.53036 0.0564328 8.01521C -0.553323 4.9849 3.9182 -0.209895 6.76373 0.00655542C 8.18649 0.223006 9.60927 1.52171 12.6581 3.25331Z" transform="translate(175.553 106.054)" fill="#3C456D"/>
</g>
<g id="Vector_94">
<path d="M 3.04878 10.6186C 2.23577 9.31992 0 7.80477 0 6.28962C 0.406504 2.39351 3.0488 -0.203875 6.91059 0.0125751C 8.33335 0.0125751 10.7724 2.60996 10.9756 4.12512C 11.1789 8.88702 7.31707 9.53637 3.04878 10.6186Z" transform="translate(128.049 177.693)" fill="#5A69A9"/>
</g>
<g id="Vector_95">
<path d="M 3.04877 10.6186C 2.23577 9.31993 -6.20276e-06 7.80478 -6.20276e-06 6.28963C 0.406498 2.39353 3.04879 -0.203862 6.91058 0.0125883C 8.33335 0.0125883 10.7724 2.60998 10.9756 4.12513C 11.1789 8.88703 7.31707 9.53638 3.04877 10.6186Z" transform="translate(204 120)" fill="#D6D6D6"/>
</g>
<g id="Vector_96">
<path d="M 7.92681 8.58434C 6.7073 10.7488 5.69106 12.4804 4.6748 14.212C 3.25204 12.9133 0.812999 12.0475 0.406495 10.5324C -0.203261 7.50208 9.31323e-06 4.03887 0.203261 0.792119C 0.203261 0.359219 3.25204 -0.290138 3.65854 0.142762C 5.28456 2.74016 6.50405 5.55404 7.92681 8.58434Z" transform="translate(142.886 76.0477)" fill="#D6D6D6"/>
</g>
<g id="Vector_97">
<path d="M 5.11805 12.3711C 2.67902 9.12431 -0.369756 6.31045 0.0367478 5.66109C 1.45951 3.28014 3.69528 1.11563 6.13431 0.0333767C 6.94732 -0.399524 10.6058 3.49661 10.4026 4.79531C 9.99608 7.17626 7.55707 9.12431 5.11805 12.3711Z" transform="translate(154.638 132.867)" fill="#313F7D"/>
</g>
<g id="Vector_98">
<path d="M 11.0297 9.33179C 10.2167 9.76469 8.79396 11.4963 7.3712 11.4963C 4.11917 11.7127 -0.555612 6.30148 0.0541441 3.27117C 0.257396 1.97247 2.08666 0.0244206 3.50942 0.0244206C 6.76146 -0.40848 11.4362 5.00278 11.0297 9.33179Z" transform="translate(109.499 106.685)" fill="#9EA5D3"/>
</g>
<g id="Vector_99">
<path d="M 7.79015 0C 8.39991 0.865801 10.8389 3.4632 10.6357 3.67965C 8.60315 6.4935 6.16413 8.87445 3.72511 11.2554C 2.5056 9.74025 0.473071 8.658 0.0665673 6.9264C -0.543189 3.8961 3.11535 0.21645 7.79015 0Z" transform="translate(166.193 145.022)" fill="#6A74AB"/>
</g>
<g id="Vector_100">
<path d="M 0 4.55919C 2.84553 2.17824 5.48778 -0.202728 5.69103 0.0137221C 7.9268 2.17822 10.1626 4.77563 11.5854 7.58948C 11.9919 8.23883 8.33333 11.9185 8.13008 11.702C 5.4878 9.97042 3.25203 7.80594 0 4.55919Z" transform="translate(161.382 186.133)" fill="#D6D6D6"/>
</g>
<g id="Vector_101">
<path d="M 9.38144 12.0199C 8.56843 13.3186 7.95868 14.8338 6.94242 15.2667C 5.92616 15.6996 3.89363 15.0502 3.69037 14.1844C 2.26761 10.5048 1.04809 6.82509 0.031832 3.14543C -0.17142 2.27963 0.6416 0.548045 1.25136 0.115144C 1.86111 -0.317756 3.69037 0.548058 4.09687 1.41386C 5.72289 4.44416 7.34892 8.1238 9.38144 12.0199Z" transform="translate(167.651 223.911)" fill="#9EA5D3"/>
</g>
<g id="Vector_102">
<path d="M 6.09756 6.60554e-06C 8.73984 2.38096 11.9919 3.8961 12.3984 5.84416C 13.0081 9.30736 9.75609 10.8225 6.91056 10.1732C 4.47153 9.30736 2.23577 7.14284 0 5.62769C 1.82927 3.89609 3.45528 2.38096 6.09756 6.60554e-06Z" transform="translate(86.9921 157.576)" fill="#D6D6D6"/>
</g>
<g id="Vector_103">
<path d="M 4.2683 12.1348C 2.23578 9.1045 0 7.58934 0 6.07419C 0 2.17808 2.64229 -0.202843 6.30082 0.0136076C 8.13009 0.230058 9.75611 2.39455 11.3821 3.69325C 9.3496 6.29066 7.31708 8.6716 4.2683 12.1348Z" transform="translate(119.512 163.623)" fill="#313F7D"/>
</g>
<g id="Vector_104">
<path d="M 6.09756 11.4719C 3.45528 8.22512 1.82927 6.0606 0 3.67965C 1.62602 2.38095 3.45528 0 5.0813 0C 8.13008 0 11.5854 1.51516 11.1789 5.62772C 10.9756 7.35932 8.53658 8.87447 6.09756 11.4719Z" transform="translate(138.821 163.853)" fill="#D6D6D6"/>
</g>
<g id="Vector_105">
<path d="M 0.824235 16.3315C -1.00503 13.3012 0.417713 1.61289 3.05999 0.0977431C 4.07625 -0.335157 6.51527 0.747084 7.12503 1.82933C 8.54779 4.85964 4.07627 14.5999 0.824235 16.3315Z" transform="translate(169.094 54.6641)" fill="#5A69A9"/>
</g>
<g id="Vector_106">
<path d="M 11.9364 5.73571C 8.88762 8.11666 7.05834 10.4976 5.22908 10.7141C 3.60306 10.7141 0.960784 8.33312 0.147776 6.38507C -0.868484 3.78766 3.60305 -0.757778 6.04207 0.108023C 7.87134 0.757374 9.09087 2.92186 11.9364 5.73571Z" transform="translate(176.885 158.117)" fill="#9095AF"/>
</g>
<g id="Vector_107">
<path d="M 11.1789 6.07335C 9.14635 7.5885 7.11381 10.4023 5.28454 10.1859C 3.45527 9.96944 1.82927 6.93915 6.20276e-06 4.9911C 1.62602 3.2595 3.25203 0.229189 4.87804 0.0127386C 6.91056 -0.203712 8.94308 2.39368 10.9756 3.69239C 11.1789 4.55819 11.1789 5.20755 11.1789 6.07335Z" transform="translate(146.545 180.29)" fill="#6A74AB"/>
</g>
<g id="Vector_108">
<path d="M 8.18295 0.649351C 8.7927 2.1645 10.0122 3.67967 10.0122 5.19482C 10.0122 8.65802 5.33744 13.6364 2.89841 12.987C 1.6789 12.5541 -0.353638 9.74025 0.0528657 9.0909C 1.67888 5.84414 3.91467 3.0303 5.94719 -6.60554e-06C 6.7602 0.216444 7.57319 0.4329 8.18295 0.649351Z" transform="translate(187.955 114.069)" fill="#9EA5D3"/>
</g>
<g id="Vector_109">
<path d="M 12.0928 8.46001C 9.24729 9.97516 8.02777 11.2739 6.80825 11.4903C 3.55622 11.4903 -0.712076 5.8626 0.100932 2.83229C 0.507436 1.53359 3.35297 -0.197982 3.75947 0.0184684C 6.40175 2.18297 8.63754 4.99681 12.0928 8.46001Z" transform="translate(100.916 87.8603)" fill="#9EA5D3"/>
</g>
<g id="Vector_110">
<path d="M 8.94308 10.8943C 5.48779 8.08043 2.84553 5.69949 0 3.53499C 1.21951 2.45274 2.23575 0.288224 3.65851 0.0717736C 7.5203 -0.577577 13.0081 3.31853 12.8049 6.13239C 12.6016 7.21464 10.9756 8.51333 8.94308 10.8943Z" transform="translate(207.114 166.595)" fill="#5A69A9"/>
</g>
<g id="Vector_111">
<path d="M 11.1892 7.15155C 9.56322 8.2338 7.32744 10.6147 6.51443 10.1818C 4.07541 8.66669 1.83964 6.28575 0.0103735 3.9048C -0.192878 3.68835 2.65263 -0.207765 3.26239 0.00868508C 6.10792 1.09094 8.75019 3.25545 11.3925 4.98705C 11.3925 5.85285 11.3925 6.5022 11.1892 7.15155Z" transform="translate(136.372 134.623)" fill="#5A69A9"/>
</g>
<g id="Vector_112">
<path d="M 11.3821 4.12348C 8.13007 6.93733 5.8943 8.88538 3.25203 10.617C 3.04877 10.8334 1.24055e-05 7.80311 1.24055e-05 6.50441C 0.203264 2.82476 2.23578 -0.205543 6.09757 0.0109075C 7.72359 0.0109075 8.94308 1.95898 11.3821 4.12348Z" transform="translate(164.431 96.093)" fill="#D6D6D6"/>
</g>
<g id="Vector_113">
<path d="M 3.0975 10.617C 1.87799 8.66899 -0.357785 6.5045 0.0487188 4.77289C 0.455223 2.82484 2.89427 0.0109971 4.52029 0.0109971C 5.94305 -0.205453 8.99183 2.82483 8.99183 4.55643C 8.99183 6.50448 6.75606 8.669 5.53655 10.8335C 4.72354 10.6171 3.91051 10.617 3.0975 10.617Z" transform="translate(159.911 115.357)" fill="#9EA5D3"/>
</g>
<g id="Vector_114">
<path d="M 10.4079 6.49351C 7.76564 8.87446 5.32664 11.2554 5.12338 11.0389C 3.09086 9.30734 1.05834 7.14284 0.0420833 4.54543C -0.364421 3.67963 2.27785 1.51515 3.49736 0C 5.52988 1.94805 7.35914 3.67965 10.4079 6.49351Z" transform="translate(126.177 76.4069)" fill="#5A69A9"/>
</g>
<g id="Vector_115">
<path d="M 10.7815 7.15322C 8.34247 9.10127 5.90346 11.2657 5.90346 11.0493C 3.66769 8.66834 1.63515 6.07096 0.00913406 3.25711C -0.194118 3.04066 3.05794 -0.206097 3.46444 0.0103535C 5.90347 1.74196 7.93597 4.12292 10.7815 7.15322Z" transform="translate(118.284 92.6304)" fill="#5A69A9"/>
</g>
<g id="Vector_116">
<path d="M 5.52292 0C 7.55544 3.0303 9.99447 5.84416 9.58796 6.06061C 7.75869 8.22511 5.52293 10.1731 3.0839 11.6883C 2.88065 11.9047 -0.371381 8.44156 0.0351235 7.57576C 1.05138 5.19481 3.0839 3.24675 5.52292 0Z" transform="translate(134.721 191.558)" fill="#313F7D"/>
</g>
<g id="Vector_117">
<path d="M 7.57573 7.17731C 6.35622 9.34181 5.54319 10.6405 4.73019 12.1557C 3.30742 11.0734 1.88466 10.2076 0.665145 9.12535C 0.461893 9.12535 0.461911 8.90891 0.461911 8.69246C 0.258659 6.09505 -0.14787 3.49765 0.0553824 0.900252C 0.0553824 0.683802 2.69766 -0.182002 3.10416 0.034448C 4.73018 1.9825 5.94972 4.57991 7.57573 7.17731Z" transform="translate(119.253 58.4071)" fill="#5A69A9"/>
</g>
<g id="Vector_118">
<path d="M 10.7821 4.38032C 7.53004 6.97772 5.70076 8.92577 3.46499 9.79157C 2.85523 10.008 -0.193543 6.32836 0.00970867 5.89546C 1.43247 3.51451 3.26173 1.56646 5.49751 0.051311C 6.10726 -0.38159 8.1398 1.99936 10.7821 4.38032Z" transform="translate(139.421 209.256)" fill="#D6D6D6"/>
</g>
<g id="Vector_119">
<path d="M 10.7723 4.11256C 7.72357 6.27706 5.89432 8.44155 4.47155 8.2251C 2.84553 8.00865 1.62603 5.62769 1.24055e-05 4.32899C 1.42278 2.81384 2.64229 0.216437 4.06505 -1.32111e-05C 5.89432 -1.32111e-05 7.52031 2.16451 10.7723 4.11256Z" transform="translate(144.106 120.996)" fill="#9EA5D3"/>
</g>
<g id="Vector_120">
<path d="M 8.95508 4.55581C 6.71931 6.50386 4.89007 8.88478 4.28031 8.45188C 2.45104 7.36963 0.825015 5.63804 0.0120066 3.68999C -0.191245 3.04064 2.24779 -0.206111 2.65429 0.0103391C 4.68681 0.87614 6.31281 2.60776 8.95508 4.55581Z" transform="translate(134.744 94.1455)" fill="#9EA5D3"/>
</g>
</g>
</g>
</g>
</g>
<defs>

<linearGradient id="paint0_linear" x2="1" gradientUnits="userSpaceOnUse" gradientTransform="matrix(-74 80.5 -76.285 -70.1253 147.919 35.2445)">
<stop stop-color="#4B537D"/>
<stop offset="1" stop-color="#4B537D" stop-opacity="0"/>
</linearGradient>
<linearGradient id="paint1_linear" x2="1" gradientUnits="userSpaceOnUse" gradientTransform="matrix(0 109.139 -110.976 0 110.976 0)">
<stop stop-color="#5A69A9"/>
<stop offset="1" stop-color="#5A69A9" stop-opacity="0"/>
</linearGradient>
<linearGradient id="paint2_linear" x2="1" gradientUnits="userSpaceOnUse" gradientTransform="matrix(-58.5 81.5 -67.7303 -48.6162 116.154 30.4358)">
<stop offset="0.0305179" stop-color="#6A74AB"/>
<stop offset="1" stop-color="#6A74AB" stop-opacity="0"/>
</linearGradient>
<linearGradient id="paint3_linear" x2="1" gradientUnits="userSpaceOnUse" gradientTransform="matrix(0 104.762 -99.6243 0 99.6243 0)">
<stop offset="0.232044" stop-color="#101010"/>
<stop offset="1" stop-color="#5A69A9"/>
</linearGradient>
<linearGradient id="paint4_linear" x2="1" gradientUnits="userSpaceOnUse" gradientTransform="matrix(0 96.7533 -94.9187 0 94.9187 0)">
<stop stop-color="#313131" stop-opacity="0"/>
<stop offset="0.966851" stop-color="#5A69A9"/>
</linearGradient>
<linearGradient id="paint5_linear" x2="1" gradientUnits="userSpaceOnUse" gradientTransform="matrix(0 84.404 -101.423 0 101.423 0)">
<stop offset="0.348066" stop-color="#4B537D" stop-opacity="0"/>
<stop offset="0.745856" stop-color="#4B537D"/>
</linearGradient>
<linearGradient id="paint6_linear" x2="1" gradientUnits="userSpaceOnUse" gradientTransform="matrix(50 84 -53.0832 31.5971 29.3685 -11.2077)">
<stop stop-color="#6A74AB"/>
<stop offset="1" stop-color="#6A74AB" stop-opacity="0"/>
</linearGradient>
<linearGradient id="paint7_linear" x2="1" gradientUnits="userSpaceOnUse" gradientTransform="matrix(25.5 40 -26.4525 16.8635 25.4418 15.2999)">
<stop stop-color="#4B537D"/>
<stop offset="1" stop-color="#4B537D" stop-opacity="0"/>
</linearGradient>
<linearGradient id="paint8_linear" x2="1" gradientUnits="userSpaceOnUse" gradientTransform="matrix(0 93.5065 -66.1511 0 66.1511 0)">
<stop stop-color="#7C88CC"/>
<stop offset="0.845304" stop-color="#7C88CC" stop-opacity="0"/>
</linearGradient>
<linearGradient id="paint9_linear" x2="1" gradientUnits="userSpaceOnUse" gradientTransform="matrix(0 96.3203 -60.2234 0 60.2234 -2.86102e-06)">
<stop stop-opacity="0"/>
<stop offset="0.546961" stop-color="#4B537D"/>
</linearGradient>
<linearGradient id="paint10_linear" x2="1" gradientUnits="userSpaceOnUse" gradientTransform="matrix(49.5 36.5 -47.6494 64.6205 31.7271 -26.2518)">
<stop stop-color="#4B537D"/>
<stop offset="1" stop-color="#4B537D" stop-opacity="0"/>
</linearGradient>
<linearGradient id="paint11_linear" x2="1" gradientUnits="userSpaceOnUse" gradientTransform="matrix(65.5 32 -85.4111 174.826 66.0958 -94.1445)">
<stop stop-color="#4B537D" stop-opacity="0"/>
<stop offset="0.723757" stop-color="#4B537D"/>
</linearGradient>
<linearGradient id="paint12_linear" x2="1" gradientUnits="userSpaceOnUse" gradientTransform="matrix(0 77.7056 -93.0894 0 93.0894 0)">
<stop offset="0.38674" stop-color="#A0A8DA" stop-opacity="0"/>
<stop offset="0.812155" stop-color="#A0A8DA"/>
</linearGradient>
<linearGradient id="paint13_linear" x2="1" gradientUnits="userSpaceOnUse" gradientTransform="matrix(-62.5 -27.5 51.9969 -118.175 54.0952 100.659)">
<stop stop-color="#5A69A9"/>
<stop offset="1" stop-color="#5A69A9" stop-opacity="0"/>
</linearGradient>
<linearGradient id="paint14_linear" x2="1" gradientUnits="userSpaceOnUse" gradientTransform="matrix(-69 16 -43.0289 -185.562 104.905 92.8653)">
<stop stop-color="#9EA5D3"/>
<stop offset="1" stop-color="#9EA5D3" stop-opacity="0"/>
</linearGradient>
<linearGradient id="paint15_linear" x2="1" gradientUnits="userSpaceOnUse" gradientTransform="matrix(0 58.658 -80.691 0 80.691 0)">
<stop offset="0.187845" stop-color="#A0A8DA" stop-opacity="0"/>
<stop offset="1" stop-color="#A0A8DA"/>
</linearGradient>
<linearGradient id="paint16_linear" x2="1" gradientUnits="userSpaceOnUse" gradientTransform="matrix(0 86.5801 -47.5087 0 47.5087 0)">
<stop offset="0.127072" stop-color="#A0A8DA" stop-opacity="0"/>
<stop offset="0.961326" stop-color="#A0A8DA"/>
</linearGradient>
<linearGradient id="paint17_linear" x2="1" gradientUnits="userSpaceOnUse" gradientTransform="matrix(65 -1.24522e-06 1.05889e-05 582.962 12.2317 -285.979)">
<stop stop-color="#7C88CC"/>
<stop offset="1" stop-color="#7C88CC" stop-opacity="0"/>
</linearGradient>
<linearGradient id="paint18_linear" x2="1" gradientUnits="userSpaceOnUse" gradientTransform="matrix(70 -8.20517e-07 7.00982e-06 485.336 11.642 -236.071)">
<stop stop-color="#4B537D"/>
<stop offset="1" stop-color="#4B537D" stop-opacity="0"/>
</linearGradient>
<linearGradient id="paint19_linear" x2="1" gradientUnits="userSpaceOnUse" gradientTransform="matrix(0 78.5714 -71.5447 0 71.5447 0)">
<stop offset="0.480663" stop-color="#5A69A9" stop-opacity="0"/>
<stop offset="0.823204" stop-color="#5A69A9"/>
</linearGradient>
<linearGradient id="paint20_linear" x2="1" gradientUnits="userSpaceOnUse" gradientTransform="matrix(53 31 -48.7501 83.3469 33.2408 -29.2903)">
<stop stop-color="#7C88CC"/>
<stop offset="1" stop-color="#7C88CC" stop-opacity="0"/>
</linearGradient>
<linearGradient id="paint21_linear" x2="1" gradientUnits="userSpaceOnUse" gradientTransform="matrix(32.5 46.5 -51.2195 35.7986 29.0204 -17.9686)">
<stop stop-color="#7C88CC"/>
<stop offset="0.857021" stop-color="#7C88CC" stop-opacity="0"/>
</linearGradient>
<linearGradient id="paint22_linear" x2="1" gradientUnits="userSpaceOnUse" gradientTransform="matrix(0 84.4367 -43.2927 0 43.2927 0)">
<stop offset="0.116022" stop-color="#7C88CC" stop-opacity="0"/>
<stop offset="1" stop-color="#7C88CC"/>
</linearGradient>
<linearGradient id="paint23_linear" x2="1" gradientUnits="userSpaceOnUse" gradientTransform="matrix(0 79.4372 -64.2276 0 64.2276 0)">
<stop stop-opacity="0"/>
<stop offset="0.856354" stop-color="#A0A8DA"/>
</linearGradient>
<linearGradient id="paint24_linear" x2="1" gradientUnits="userSpaceOnUse" gradientTransform="matrix(-39.5 59 -40.8852 -27.3723 74.8733 14.1234)">
<stop stop-color="#5A69A9"/>
<stop offset="1" stop-color="#5A69A9" stop-opacity="0"/>
</linearGradient>
<linearGradient id="paint25_linear" x2="1" gradientUnits="userSpaceOnUse" gradientTransform="matrix(-51 28.5 -46.5947 -83.3799 94.391 45.5568)">
<stop stop-color="#6A74AB"/>
<stop offset="1" stop-color="#6A74AB" stop-opacity="0"/>
</linearGradient>
<linearGradient id="paint26_linear" x2="1" gradientUnits="userSpaceOnUse" gradientTransform="matrix(-58 4.5 -23.689 -305.325 76.2348 155.699)">
<stop stop-color="#6A74AB"/>
<stop offset="1" stop-color="#6A74AB" stop-opacity="0"/>
</linearGradient>
<linearGradient id="paint27_linear" x2="1" gradientUnits="userSpaceOnUse" gradientTransform="matrix(-70 2.5 -16.2749 -455.696 83.2311 231.788)">
<stop stop-color="#4B537D"/>
<stop offset="1" stop-color="#4B537D" stop-opacity="0"/>
</linearGradient>
<linearGradient id="paint28_linear" x2="1" gradientUnits="userSpaceOnUse" gradientTransform="matrix(0 34.2863 -71.1382 0 71.1382 0)">
<stop stop-color="#5A69A9"/>
<stop offset="1" stop-color="#5A69A9" stop-opacity="0"/>
</linearGradient>
<linearGradient id="paint29_linear" x2="1" gradientUnits="userSpaceOnUse" gradientTransform="matrix(-63 -39.5 50.8031 -81.0277 65.9887 105.724)">
<stop stop-color="#A0A8DA"/>
<stop offset="1" stop-color="#A0A8DA" stop-opacity="0"/>
</linearGradient>
<linearGradient id="paint30_linear" x2="1" gradientUnits="userSpaceOnUse" gradientTransform="matrix(68.5 1.50001 -14.0898 643.429 8.34798 -315.583)">
<stop stop-color="#6A74AB"/>
<stop offset="1" stop-color="#6A74AB" stop-opacity="0"/>
</linearGradient>
<linearGradient id="paint31_linear" x2="1" gradientUnits="userSpaceOnUse" gradientTransform="matrix(-4.75571 89.8918 -12.2713 -0.64921 11.2327 0.324605)">
<stop stop-color="#4B537D"/>
<stop offset="1" stop-color="#4B537D" stop-opacity="0"/>
</linearGradient>
<linearGradient id="paint32_linear" x2="1" gradientUnits="userSpaceOnUse" gradientTransform="matrix(-65 -0.999995 8.74396 -568.36 63.0183 289.761)">
<stop stop-color="#5A69A9"/>
<stop offset="1" stop-color="#5A69A9" stop-opacity="0"/>
</linearGradient>
<linearGradient id="paint33_linear" x2="1" gradientUnits="userSpaceOnUse" gradientTransform="matrix(0.425415 62.8095 -7.57247 0.0512891 8.22251 -0.0256445)">
<stop stop-color="#6A74AB"/>
<stop offset="1" stop-color="#6A74AB" stop-opacity="0"/>
</linearGradient>
<linearGradient id="paint34_linear" x2="1" gradientUnits="userSpaceOnUse" gradientTransform="matrix(0 69.9134 -8.18699 0 8.18699 0)">
<stop stop-color="#A0A8DA" stop-opacity="0"/>
<stop offset="1" stop-color="#A0A8DA"/>
</linearGradient>
<linearGradient id="paint35_linear" x2="1" gradientUnits="userSpaceOnUse" gradientTransform="matrix(-24.5 26 -28.6623 -27.0087 66.4248 13.0875)">
<stop stop-color="#5A69A9"/>
<stop offset="1" stop-color="#5A69A9" stop-opacity="0"/>
</linearGradient>
<linearGradient id="paint36_linear" x2="1" gradientUnits="userSpaceOnUse" gradientTransform="matrix(-62 -1.49736e-06 1.99685e-05 -741.78 62.3902 373.332)">
<stop stop-color="#6A74AB"/>
<stop offset="1" stop-color="#6A74AB" stop-opacity="0"/>
</linearGradient>
<linearGradient id="paint37_linear" x2="1" gradientUnits="userSpaceOnUse" gradientTransform="matrix(55.5 -24 49.8788 115.345 -25.3542 -22.9234)">
<stop stop-color="#4B537D"/>
<stop offset="1" stop-color="#4B537D" stop-opacity="0"/>
</linearGradient>
<linearGradient id="paint38_linear" x2="1" gradientUnits="userSpaceOnUse" gradientTransform="matrix(6.69494 71.2836 -8.98199 0.843587 2.06436 -3.95648)">
<stop stop-color="#9EA5D3"/>
<stop offset="1" stop-color="#9EA5D3" stop-opacity="0"/>
</linearGradient>
<linearGradient id="paint39_linear" x2="1" gradientUnits="userSpaceOnUse" gradientTransform="matrix(0 67.5325 -9.16604 0 9.16604 0)">
<stop stop-color="#4B537D" stop-opacity="0"/>
<stop offset="0.430939" stop-color="#4B537D"/>
</linearGradient>
<linearGradient id="paint40_linear" x2="1" gradientUnits="userSpaceOnUse" gradientTransform="matrix(-24 39 -26.2387 -16.1469 48.3713 10.7834)">
<stop stop-color="#9EA5D3"/>
<stop offset="1" stop-color="#9EA5D3" stop-opacity="0"/>
</linearGradient>
<linearGradient id="paint41_linear" x2="1" gradientUnits="userSpaceOnUse" gradientTransform="matrix(58 -18 39.3453 126.779 -22.3232 -39.749)">
<stop stop-color="#6A74AB"/>
<stop offset="1" stop-color="#6A74AB" stop-opacity="0"/>
</linearGradient>
<linearGradient id="paint42_linear" x2="1" gradientUnits="userSpaceOnUse" gradientTransform="matrix(0 63.2035 -9.95935 0 9.95935 0)">
<stop stop-color="#7C88CC" stop-opacity="0"/>
<stop offset="0.729282" stop-color="#7C88CC"/>
</linearGradient>
<linearGradient id="paint43_linear" x2="1" gradientUnits="userSpaceOnUse" gradientTransform="matrix(8.67389 68.7835 -14.6893 1.85238 4.67998 -13.4327)">
<stop stop-color="#5A69A9"/>
<stop offset="1" stop-color="#5A69A9" stop-opacity="0"/>
</linearGradient>
<linearGradient id="paint44_linear" x2="1" gradientUnits="userSpaceOnUse" gradientTransform="matrix(41.5 -19 37.5092 81.9281 -13.0797 -16.1199)">
<stop stop-color="#4B537D"/>
<stop offset="1" stop-color="#4B537D" stop-opacity="0"/>
</linearGradient>
<linearGradient id="paint45_linear" x2="1" gradientUnits="userSpaceOnUse" gradientTransform="matrix(0 52.5974 -27.9273 0 27.9273 0)">
<stop offset="0.303867" stop-color="#4B537D" stop-opacity="0"/>
<stop offset="1" stop-color="#4B537D"/>
</linearGradient>
<linearGradient id="paint46_linear" x2="1" gradientUnits="userSpaceOnUse" gradientTransform="matrix(-40 21 -36.1215 -68.8029 72.451 34.5263)">
<stop stop-color="#5A69A9"/>
<stop offset="1" stop-color="#5A69A9" stop-opacity="0"/>
</linearGradient>
<linearGradient id="paint47_linear" x2="1" gradientUnits="userSpaceOnUse" gradientTransform="matrix(31 16.5 -27.278 51.2496 17.0619 -20.4971)">
<stop stop-color="#5A69A9"/>
<stop offset="1" stop-color="#5A69A9" stop-opacity="0"/>
</linearGradient>
<linearGradient id="paint48_linear" x2="1" gradientUnits="userSpaceOnUse" gradientTransform="matrix(34 19.5 -24.2573 42.2948 3.97437 -26.5478)">
<stop stop-color="#7C88CC"/>
<stop offset="1" stop-color="#7C88CC" stop-opacity="0"/>
</linearGradient>
<linearGradient id="paint49_linear" x2="1" gradientUnits="userSpaceOnUse" gradientTransform="matrix(0 51.7316 -28.252 0 28.252 0)">
<stop offset="0.574586" stop-color="#A0A8DA" stop-opacity="0"/>
<stop offset="1" stop-color="#A0A8DA"/>
</linearGradient>
<linearGradient id="paint50_linear" x2="1" gradientUnits="userSpaceOnUse" gradientTransform="matrix(7.194 70.7835 -28.175 2.86353 10.8986 -20.2672)">
<stop stop-color="#5A69A9"/>
<stop offset="1" stop-color="#5A69A9" stop-opacity="0"/>
</linearGradient>
<linearGradient id="paint51_linear" x2="1" gradientUnits="userSpaceOnUse" gradientTransform="matrix(0 49.5671 -6.39113 0 6.39113 0)">
<stop stop-color="#A0A8DA" stop-opacity="0"/>
<stop offset="0.624309" stop-color="#A0A8DA"/>
</linearGradient>
<linearGradient id="paint52_linear" x2="1" gradientUnits="userSpaceOnUse" gradientTransform="matrix(0 48.4849 -13.7299 0 13.7299 0)">
<stop offset="0.0828729" stop-color="#5A69A9" stop-opacity="0"/>
<stop offset="0.812155" stop-color="#5A69A9"/>
</linearGradient>
<linearGradient id="paint53_linear" x2="1" gradientUnits="userSpaceOnUse" gradientTransform="matrix(26.4431 52.5 -37.9218 19.1004 6.74535 -22.6563)">
<stop stop-color="#5A69A9"/>
<stop offset="1" stop-color="#5A69A9" stop-opacity="0"/>
</linearGradient>
<linearGradient id="paint54_linear" x2="1" gradientUnits="userSpaceOnUse" gradientTransform="matrix(-9.34907 44.7836 -18.8924 -3.94399 28.2916 2.21003)">
<stop stop-color="#9EA5D3"/>
<stop offset="1" stop-color="#9EA5D3" stop-opacity="0"/>
</linearGradient>
<linearGradient id="paint55_linear" x2="1" gradientUnits="userSpaceOnUse" gradientTransform="matrix(0 45.4545 -14.4309 0 14.4309 0)">
<stop offset="0.116022" stop-color="#4B537D" stop-opacity="0"/>
<stop offset="0.618785" stop-color="#4B537D"/>
</linearGradient>
<linearGradient id="paint56_linear" x2="1" gradientUnits="userSpaceOnUse" gradientTransform="matrix(-5.00943 53.2836 -11.3281 -1.06501 15.5283 -7.08014)">
<stop stop-color="#5A69A9"/>
<stop offset="1" stop-color="#5A69A9" stop-opacity="0"/>
</linearGradient>
<linearGradient id="paint57_linear" x2="1" gradientUnits="userSpaceOnUse" gradientTransform="matrix(0 41.5584 -25 0 25 0)">
<stop offset="0.458564" stop-color="#A0A8DA" stop-opacity="0"/>
<stop offset="0.9999" stop-color="#A0A8DA"/>
<stop offset="1" stop-color="#A0A8DA"/>
</linearGradient>
<linearGradient id="paint58_linear" x2="1" gradientUnits="userSpaceOnUse" gradientTransform="matrix(0 21.645 -40.4471 0 40.4471 0)">
<stop stop-opacity="0"/>
<stop offset="1" stop-color="#7C88CC"/>
</linearGradient>
<linearGradient id="paint59_linear" x2="1" gradientUnits="userSpaceOnUse" gradientTransform="matrix(34 20 -34.0907 57.9542 17.395 -29.1156)">
<stop stop-color="#9EA5D3"/>
<stop offset="1" stop-color="#9EA5D3" stop-opacity="0"/>
</linearGradient>
<linearGradient id="paint60_linear" x2="1" gradientUnits="userSpaceOnUse" gradientTransform="matrix(22.5 -7 14.2419 45.7774 -0.946125 -9.01855)">
<stop stop-color="#7C88CC"/>
<stop offset="1" stop-color="#7C88CC" stop-opacity="0"/>
</linearGradient>
<linearGradient id="paint61_linear" x2="1" gradientUnits="userSpaceOnUse" gradientTransform="matrix(0 22.2944 -6.91833 0 6.91833 0)">
<stop offset="0.259668" stop-color="#A0A8DA" stop-opacity="0"/>
<stop offset="1" stop-color="#A0A8DA"/>
</linearGradient>

</defs>
</svg>

